<svg width="280" height="232" viewBox="0 0 280 232" fill="none" xmlns="http://www.w3.org/2000/svg">
<path d="M271.268 74.7568L211.931 31.2745C209.067 29.176 205.247 28.067 201.096 28.1298C196.946 28.1926 192.713 29.4233 189.094 31.6198L16.7812 136.194C14.9017 137.335 13.2857 138.762 12.0465 140.377C10.8073 141.991 9.97494 143.752 9.60774 145.538C9.24054 147.324 9.3474 149.091 9.92084 150.714C10.4943 152.338 11.5204 153.779 12.9273 154.937L70.7106 202.497C73.8047 205.044 78.1237 206.416 82.8614 206.357C87.5992 206.297 92.4321 204.811 96.4584 202.176L214.096 125.171L214.975 126.442L237.303 111.87L236.349 110.606L269.186 89.1109C270.593 88.1903 271.782 87.0565 272.669 85.7905C273.556 84.5245 274.12 83.1573 274.319 81.7865C274.518 80.4157 274.348 79.0751 273.821 77.8601C273.295 76.6452 272.424 75.5859 271.271 74.7577L271.268 74.7568Z" fill="#3F3D56"/>
<path d="M216.64 39.7568L209.716 34.6829C207.728 33.2257 205.071 32.4594 202.187 32.5113C199.303 32.5633 196.366 33.4302 193.863 34.9683L23.9596 139.365C22.9813 139.966 22.1401 140.714 21.4935 141.558C20.847 142.402 20.4102 143.322 20.2132 144.255C20.0161 145.189 20.0634 146.113 20.3518 146.966C20.6402 147.818 21.1629 148.579 21.8841 149.195L78.4053 197.53C79.9999 198.893 82.2558 199.639 84.7425 199.624C87.2293 199.609 89.7727 198.834 91.8876 197.448L262.312 85.7428C263.415 85.0198 264.348 84.1306 265.046 83.1378C265.743 82.1451 266.188 81.073 266.35 79.9973C266.511 78.9217 266.384 77.8685 265.978 76.9123C265.572 75.956 264.897 75.12 264.001 74.4631L257.432 69.6496C256.797 69.1837 255.954 68.9302 255.036 68.9283C254.117 68.9265 253.174 69.1765 252.351 69.6395C251.625 70.0485 250.792 70.2692 249.981 70.2675C249.169 70.2658 248.426 70.0418 247.864 69.6301L216.68 46.7779C215.581 45.9724 214.966 44.8018 214.959 43.5001C214.951 42.1985 215.552 40.8616 216.64 39.7568Z" fill="white"/>
<path d="M151.426 152.391C151.541 152.482 151.698 152.53 151.87 152.527C152.042 152.524 152.217 152.47 152.363 152.375L245.413 91.4989C245.502 91.441 245.577 91.3701 245.633 91.2908C245.69 91.2116 245.727 91.1259 245.742 91.0397C245.756 90.9542 245.748 90.8701 245.717 90.7936C245.686 90.717 245.634 90.6498 245.564 90.5967L185.045 44.9949L185.039 44.9908C184.927 44.9101 184.778 44.8681 184.616 44.8715C184.455 44.8749 184.291 44.9235 184.151 45.0095L91.2733 101.823C91.1826 101.879 91.1046 101.948 91.0446 102.026C90.9845 102.104 90.9439 102.189 90.9254 102.275C90.907 102.361 90.9115 102.446 90.9385 102.524C90.9655 102.602 91.0145 102.671 91.0818 102.726L151.426 152.391Z" fill="#E6E6E6"/>
<path d="M93.3505 117.39C93.2943 117.349 93.2194 117.327 93.1381 117.328C93.0567 117.329 92.9737 117.353 92.9024 117.396L89.6717 119.331C89.626 119.358 89.5866 119.393 89.5561 119.431C89.5256 119.47 89.5048 119.513 89.4951 119.556C89.4854 119.599 89.487 119.642 89.4998 119.682C89.5126 119.721 89.5364 119.757 89.5694 119.785L119.751 145.943C119.808 145.991 119.887 146.018 119.975 146.018C120.062 146.018 120.153 145.992 120.228 145.944L123.853 143.622C123.897 143.594 123.935 143.559 123.963 143.52C123.992 143.482 124.011 143.439 124.019 143.397C124.028 143.354 124.025 143.312 124.011 143.274C123.997 143.235 123.973 143.2 123.94 143.172L93.3652 117.402L93.3505 117.39Z" fill="#E6E6E6"/>
<path d="M117.689 160.164C117.743 160.211 117.819 160.239 117.904 160.241C117.989 160.243 118.077 160.22 118.153 160.176L121.937 157.959C121.983 157.932 122.023 157.898 122.054 157.859C122.086 157.82 122.107 157.777 122.117 157.733C122.127 157.69 122.125 157.646 122.113 157.606C122.1 157.566 122.076 157.531 122.042 157.502L83.4411 124.135C83.3893 124.089 83.3166 124.063 83.2352 124.059C83.1539 124.056 83.069 124.076 82.9949 124.116L79.6013 125.941C79.5528 125.967 79.5103 126.001 79.477 126.04C79.4436 126.079 79.4203 126.123 79.4085 126.167C79.3968 126.211 79.397 126.256 79.4092 126.297C79.4213 126.338 79.4451 126.375 79.4788 126.405L117.689 160.164Z" fill="#E6E6E6"/>
<path d="M105.755 167.137C105.809 167.184 105.885 167.212 105.97 167.214C106.055 167.216 106.143 167.193 106.218 167.149L110.002 164.932C110.049 164.905 110.089 164.871 110.12 164.832C110.151 164.793 110.172 164.75 110.182 164.706C110.192 164.663 110.191 164.619 110.178 164.579C110.165 164.539 110.141 164.504 110.108 164.475L71.5066 131.108C71.4548 131.063 71.382 131.036 71.3007 131.032C71.2194 131.029 71.1345 131.049 71.0604 131.089L67.6668 132.914C67.6183 132.94 67.5758 132.974 67.5425 133.013C67.5091 133.052 67.4857 133.096 67.474 133.14C67.4623 133.184 67.4625 133.229 67.4747 133.27C67.4868 133.311 67.5106 133.348 67.5443 133.378L105.755 167.137Z" fill="#E6E6E6"/>
<path d="M69.909 167.747C69.9617 167.796 70.0379 167.825 70.1234 167.827C70.2088 167.83 70.2978 167.807 70.3737 167.762L78.2607 163.171C78.3069 163.145 78.3469 163.111 78.3781 163.072C78.4093 163.034 78.4308 162.991 78.4412 162.948C78.4516 162.905 78.4507 162.862 78.4385 162.822C78.4262 162.782 78.403 162.746 78.3703 162.717L55.1088 141.936C55.0535 141.888 54.9759 141.861 54.8898 141.86C54.8037 141.858 54.7146 141.882 54.6384 141.927L47.2283 146.45C47.1838 146.477 47.1454 146.511 47.1156 146.549C47.0858 146.587 47.0654 146.629 47.0557 146.671C47.0459 146.713 47.047 146.755 47.059 146.794C47.071 146.833 47.0935 146.869 47.1251 146.897L69.909 167.747Z" fill="#6C63FF"/>
</svg>
