<svg width="357" height="202" viewBox="0 0 357 202" fill="none" xmlns="http://www.w3.org/2000/svg">
<ellipse cx="99.4907" cy="100" rx="90.7407" ry="100" fill="#FF4A1C"/>
<path d="M253.296 102C253.296 149.339 218.474 187.714 175.519 187.714C132.563 187.714 97.7408 149.339 97.7408 102C97.7408 54.6613 132.563 16.2857 175.519 16.2857C218.474 16.2857 253.296 54.6613 253.296 102Z" fill="#FF4A1C"/>
<ellipse cx="253.296" cy="102" rx="64.8148" ry="71.4286" fill="#FF4A1C"/>
<rect x="97.7408" y="64.8571" width="259.259" height="71.4286" fill="#205878"/>
<path d="M173.031 100.195C173.031 101.742 172.828 103.234 172.422 104.672C172.031 106.094 171.469 107.43 170.734 108.68C170 109.914 169.125 111.047 168.109 112.078C167.094 113.094 165.961 113.969 164.711 114.703C163.461 115.438 162.117 116.008 160.68 116.414C159.258 116.805 157.773 117 156.227 117H146.102V83.3906H156.227C157.773 83.3906 159.258 83.5938 160.68 84C162.117 84.3906 163.461 84.9531 164.711 85.6875C165.961 86.4219 167.094 87.3047 168.109 88.3359C169.125 89.3516 170 90.4844 170.734 91.7344C171.469 92.9688 172.031 94.3047 172.422 95.7422C172.828 97.1641 173.031 98.6484 173.031 100.195ZM166.305 100.195C166.305 98.8047 166.039 97.5 165.508 96.2812C164.992 95.0625 164.273 94 163.352 93.0938C162.445 92.1719 161.375 91.4453 160.141 90.9141C158.922 90.3828 157.617 90.1172 156.227 90.1172H152.875V110.273H156.227C157.617 110.273 158.922 110.016 160.141 109.5C161.375 108.969 162.445 108.25 163.352 107.344C164.273 106.422 164.992 105.352 165.508 104.133C166.039 102.898 166.305 101.586 166.305 100.195ZM202.539 117H194.383L187.914 106.148L181.422 117H173.312L183.625 100.195L173.312 83.3906H181.422L187.914 94.2422L194.383 83.3906H202.539L192.227 100.195L202.539 117ZM245.969 113.555C244.406 114.898 242.656 115.93 240.719 116.648C238.781 117.367 236.773 117.727 234.695 117.727C233.102 117.727 231.562 117.516 230.078 117.094C228.609 116.688 227.227 116.109 225.93 115.359C224.648 114.594 223.477 113.68 222.414 112.617C221.352 111.555 220.438 110.383 219.672 109.102C218.922 107.805 218.336 106.422 217.914 104.953C217.508 103.469 217.305 101.93 217.305 100.336C217.305 98.7422 217.508 97.2031 217.914 95.7188C218.336 94.2344 218.922 92.8516 219.672 91.5703C220.438 90.2734 221.352 89.0938 222.414 88.0312C223.477 86.9688 224.648 86.0625 225.93 85.3125C227.227 84.5469 228.609 83.9609 230.078 83.5547C231.562 83.1328 233.102 82.9219 234.695 82.9219C236.773 82.9219 238.781 83.2812 240.719 84C242.656 84.7031 244.406 85.7344 245.969 87.0938L242.406 92.9531C241.422 91.8906 240.258 91.0781 238.914 90.5156C237.57 89.9375 236.164 89.6484 234.695 89.6484C233.211 89.6484 231.82 89.9297 230.523 90.4922C229.227 91.0547 228.094 91.8203 227.125 92.7891C226.156 93.7422 225.391 94.875 224.828 96.1875C224.266 97.4844 223.984 98.8672 223.984 100.336C223.984 101.805 224.266 103.188 224.828 104.484C225.391 105.766 226.156 106.891 227.125 107.859C228.094 108.828 229.227 109.594 230.523 110.156C231.82 110.719 233.211 111 234.695 111C236.164 111 237.57 110.719 238.914 110.156C240.258 109.578 241.422 108.758 242.406 107.695L245.969 113.555ZM272.57 104.227C272.57 106.102 272.234 107.852 271.562 109.477C270.891 111.086 269.977 112.484 268.82 113.672C267.664 114.844 266.305 115.773 264.742 116.461C263.195 117.133 261.531 117.469 259.75 117.469C257.984 117.469 256.32 117.133 254.758 116.461C253.211 115.773 251.852 114.844 250.68 113.672C249.523 112.484 248.609 111.086 247.938 109.477C247.266 107.852 246.93 106.102 246.93 104.227C246.93 102.32 247.266 100.555 247.938 98.9297C248.609 97.3047 249.523 95.9062 250.68 94.7344C251.852 93.5469 253.211 92.6172 254.758 91.9453C256.32 91.2734 257.984 90.9375 259.75 90.9375C261.531 90.9375 263.195 91.2578 264.742 91.8984C266.305 92.5234 267.664 93.4219 268.82 94.5938C269.977 95.75 270.891 97.1484 271.562 98.7891C272.234 100.414 272.57 102.227 272.57 104.227ZM266.125 104.227C266.125 103.195 265.953 102.266 265.609 101.438C265.281 100.594 264.828 99.875 264.25 99.2812C263.672 98.6719 262.992 98.2109 262.211 97.8984C261.445 97.5703 260.625 97.4062 259.75 97.4062C258.875 97.4062 258.047 97.5703 257.266 97.8984C256.5 98.2109 255.828 98.6719 255.25 99.2812C254.688 99.875 254.242 100.594 253.914 101.438C253.586 102.266 253.422 103.195 253.422 104.227C253.422 105.195 253.586 106.094 253.914 106.922C254.242 107.75 254.688 108.469 255.25 109.078C255.828 109.688 256.5 110.172 257.266 110.531C258.047 110.875 258.875 111.047 259.75 111.047C260.625 111.047 261.445 110.883 262.211 110.555C262.992 110.227 263.672 109.766 264.25 109.172C264.828 108.578 265.281 107.859 265.609 107.016C265.953 106.172 266.125 105.242 266.125 104.227ZM283.656 85.0781C283.656 85.6719 283.539 86.2266 283.305 86.7422C283.086 87.2578 282.781 87.7109 282.391 88.1016C282 88.4766 281.539 88.7812 281.008 89.0156C280.492 89.2344 279.938 89.3438 279.344 89.3438C278.75 89.3438 278.188 89.2344 277.656 89.0156C277.141 88.7812 276.688 88.4766 276.297 88.1016C275.922 87.7109 275.617 87.2578 275.383 86.7422C275.164 86.2266 275.055 85.6719 275.055 85.0781C275.055 84.5 275.164 83.9531 275.383 83.4375C275.617 82.9062 275.922 82.4531 276.297 82.0781C276.688 81.6875 277.141 81.3828 277.656 81.1641C278.188 80.9297 278.75 80.8125 279.344 80.8125C279.938 80.8125 280.492 80.9297 281.008 81.1641C281.539 81.3828 282 81.6875 282.391 82.0781C282.781 82.4531 283.086 82.9062 283.305 83.4375C283.539 83.9531 283.656 84.5 283.656 85.0781ZM282.555 117H276.109V91.8984H282.555V117ZM293.852 117H287.453V91.8984H289L291.109 94.3359C292.141 93.3984 293.305 92.6797 294.602 92.1797C295.914 91.6641 297.281 91.4062 298.703 91.4062C300.234 91.4062 301.68 91.7031 303.039 92.2969C304.398 92.875 305.586 93.6797 306.602 94.7109C307.617 95.7266 308.414 96.9219 308.992 98.2969C309.586 99.6562 309.883 101.109 309.883 102.656V117H303.484V102.656C303.484 102 303.359 101.383 303.109 100.805C302.859 100.211 302.516 99.6953 302.078 99.2578C301.641 98.8203 301.133 98.4766 300.555 98.2266C299.977 97.9766 299.359 97.8516 298.703 97.8516C298.031 97.8516 297.398 97.9766 296.805 98.2266C296.211 98.4766 295.695 98.8203 295.258 99.2578C294.82 99.6953 294.477 100.211 294.227 100.805C293.977 101.383 293.852 102 293.852 102.656V117Z" fill="white"/>
<ellipse cx="43.75" cy="100" rx="43.75" ry="50" fill="#205878"/>
</svg>
