<svg width="204" height="101" viewBox="0 0 204 101" fill="none" xmlns="http://www.w3.org/2000/svg">
<ellipse cx="56.8519" cy="50" rx="51.8519" ry="50" fill="#FF4A1C"/>
<path d="M144.741 51C144.741 74.6693 124.842 93.8571 100.296 93.8571C75.7503 93.8571 55.8519 74.6693 55.8519 51C55.8519 27.3306 75.7503 8.14285 100.296 8.14285C124.842 8.14285 144.741 27.3306 144.741 51Z" fill="#FF4A1C"/>
<ellipse cx="144.741" cy="51" rx="37.037" ry="35.7143" fill="#FF4A1C"/>
<rect x="55.8519" y="32.4286" width="148.148" height="35.7143" fill="#205878"/>
<path d="M89.1484 50.3965C89.1484 51.5566 88.9961 52.6758 88.6914 53.7539C88.3984 54.8203 87.9766 55.8223 87.4258 56.7598C86.875 57.6855 86.2188 58.5352 85.457 59.3086C84.6953 60.0703 83.8457 60.7266 82.9082 61.2773C81.9707 61.8281 80.9629 62.2559 79.8848 62.5605C78.8184 62.8535 77.7051 63 76.5449 63H68.9512V37.793H76.5449C77.7051 37.793 78.8184 37.9453 79.8848 38.25C80.9629 38.543 81.9707 38.9648 82.9082 39.5156C83.8457 40.0664 84.6953 40.7285 85.457 41.502C86.2188 42.2637 86.875 43.1133 87.4258 44.0508C87.9766 44.9766 88.3984 45.9785 88.6914 47.0566C88.9961 48.123 89.1484 49.2363 89.1484 50.3965ZM84.1035 50.3965C84.1035 49.3535 83.9043 48.375 83.5059 47.4609C83.1191 46.5469 82.5801 45.75 81.8887 45.0703C81.209 44.3789 80.4062 43.834 79.4805 43.4355C78.5664 43.0371 77.5879 42.8379 76.5449 42.8379H74.0312V57.9551H76.5449C77.5879 57.9551 78.5664 57.7617 79.4805 57.375C80.4062 56.9766 81.209 56.4375 81.8887 55.7578C82.5801 55.0664 83.1191 54.2637 83.5059 53.3496C83.9043 52.4238 84.1035 51.4395 84.1035 50.3965ZM111.279 63H105.162L100.311 54.8613L95.4414 63H89.3594L97.0938 50.3965L89.3594 37.793H95.4414L100.311 45.9316L105.162 37.793H111.279L103.545 50.3965L111.279 63ZM143.852 60.416C142.68 61.4238 141.367 62.1973 139.914 62.7363C138.461 63.2754 136.955 63.5449 135.396 63.5449C134.201 63.5449 133.047 63.3867 131.934 63.0703C130.832 62.7656 129.795 62.332 128.822 61.7695C127.861 61.1953 126.982 60.5098 126.186 59.7129C125.389 58.916 124.703 58.0371 124.129 57.0762C123.566 56.1035 123.127 55.0664 122.811 53.9648C122.506 52.8516 122.354 51.6973 122.354 50.502C122.354 49.3066 122.506 48.1523 122.811 47.0391C123.127 45.9258 123.566 44.8887 124.129 43.9277C124.703 42.9551 125.389 42.0703 126.186 41.2734C126.982 40.4766 127.861 39.7969 128.822 39.2344C129.795 38.6602 130.832 38.2207 131.934 37.916C133.047 37.5996 134.201 37.4414 135.396 37.4414C136.955 37.4414 138.461 37.7109 139.914 38.25C141.367 38.7773 142.68 39.5508 143.852 40.5703L141.18 44.9648C140.441 44.168 139.568 43.5586 138.561 43.1367C137.553 42.7031 136.498 42.4863 135.396 42.4863C134.283 42.4863 133.24 42.6973 132.268 43.1191C131.295 43.541 130.445 44.1152 129.719 44.8418C128.992 45.5566 128.418 46.4062 127.996 47.3906C127.574 48.3633 127.363 49.4004 127.363 50.502C127.363 51.6035 127.574 52.6406 127.996 53.6133C128.418 54.5742 128.992 55.418 129.719 56.1445C130.445 56.8711 131.295 57.4453 132.268 57.8672C133.24 58.2891 134.283 58.5 135.396 58.5C136.498 58.5 137.553 58.2891 138.561 57.8672C139.568 57.4336 140.441 56.8184 141.18 56.0215L143.852 60.416ZM163.803 53.4199C163.803 54.8262 163.551 56.1387 163.047 57.3574C162.543 58.5645 161.857 59.6133 160.99 60.5039C160.123 61.3828 159.104 62.0801 157.932 62.5957C156.771 63.0996 155.523 63.3516 154.188 63.3516C152.863 63.3516 151.615 63.0996 150.443 62.5957C149.283 62.0801 148.264 61.3828 147.385 60.5039C146.518 59.6133 145.832 58.5645 145.328 57.3574C144.824 56.1387 144.572 54.8262 144.572 53.4199C144.572 51.9902 144.824 50.666 145.328 49.4473C145.832 48.2285 146.518 47.1797 147.385 46.3008C148.264 45.4102 149.283 44.7129 150.443 44.209C151.615 43.7051 152.863 43.4531 154.188 43.4531C155.523 43.4531 156.771 43.6934 157.932 44.1738C159.104 44.6426 160.123 45.3164 160.99 46.1953C161.857 47.0625 162.543 48.1113 163.047 49.3418C163.551 50.5605 163.803 51.9199 163.803 53.4199ZM158.969 53.4199C158.969 52.6465 158.84 51.9492 158.582 51.3281C158.336 50.6953 157.996 50.1562 157.562 49.7109C157.129 49.2539 156.619 48.9082 156.033 48.6738C155.459 48.4277 154.844 48.3047 154.188 48.3047C153.531 48.3047 152.91 48.4277 152.324 48.6738C151.75 48.9082 151.246 49.2539 150.812 49.7109C150.391 50.1562 150.057 50.6953 149.811 51.3281C149.564 51.9492 149.441 52.6465 149.441 53.4199C149.441 54.1465 149.564 54.8203 149.811 55.4414C150.057 56.0625 150.391 56.6016 150.812 57.0586C151.246 57.5156 151.75 57.8789 152.324 58.1484C152.91 58.4062 153.531 58.5352 154.188 58.5352C154.844 58.5352 155.459 58.4121 156.033 58.166C156.619 57.9199 157.129 57.5742 157.562 57.1289C157.996 56.6836 158.336 56.1445 158.582 55.5117C158.84 54.8789 158.969 54.1816 158.969 53.4199ZM172.117 39.0586C172.117 39.5039 172.029 39.9199 171.854 40.3066C171.689 40.6934 171.461 41.0332 171.168 41.3262C170.875 41.6074 170.529 41.8359 170.131 42.0117C169.744 42.1758 169.328 42.2578 168.883 42.2578C168.438 42.2578 168.016 42.1758 167.617 42.0117C167.23 41.8359 166.891 41.6074 166.598 41.3262C166.316 41.0332 166.088 40.6934 165.912 40.3066C165.748 39.9199 165.666 39.5039 165.666 39.0586C165.666 38.625 165.748 38.2148 165.912 37.8281C166.088 37.4297 166.316 37.0898 166.598 36.8086C166.891 36.5156 167.23 36.2871 167.617 36.123C168.016 35.9473 168.438 35.8594 168.883 35.8594C169.328 35.8594 169.744 35.9473 170.131 36.123C170.529 36.2871 170.875 36.5156 171.168 36.8086C171.461 37.0898 171.689 37.4297 171.854 37.8281C172.029 38.2148 172.117 38.625 172.117 39.0586ZM171.291 63H166.457V44.1738H171.291V63ZM179.764 63H174.965V44.1738H176.125L177.707 46.002C178.48 45.2988 179.354 44.7598 180.326 44.3848C181.311 43.998 182.336 43.8047 183.402 43.8047C184.551 43.8047 185.635 44.0273 186.654 44.4727C187.674 44.9062 188.564 45.5098 189.326 46.2832C190.088 47.0449 190.686 47.9414 191.119 48.9727C191.564 49.9922 191.787 51.082 191.787 52.2422V63H186.988V52.2422C186.988 51.75 186.895 51.2871 186.707 50.8535C186.52 50.4082 186.262 50.0215 185.934 49.6934C185.605 49.3652 185.225 49.1074 184.791 48.9199C184.357 48.7324 183.895 48.6387 183.402 48.6387C182.898 48.6387 182.424 48.7324 181.979 48.9199C181.533 49.1074 181.146 49.3652 180.818 49.6934C180.49 50.0215 180.232 50.4082 180.045 50.8535C179.857 51.2871 179.764 51.75 179.764 52.2422V63Z" fill="white"/>
<circle cx="25" cy="50" r="25" fill="#205878"/>
</svg>
