<svg width="700" height="550" viewBox="0 0 700 550" fill="none" xmlns="http://www.w3.org/2000/svg">
<path d="M184.269 156.834C184.047 154.975 183.598 153.155 182.932 151.419C182.847 151.091 182.699 150.785 182.496 150.521C182.293 150.256 182.04 150.04 181.754 149.884C181.371 149.779 180.97 149.774 180.585 149.871L174.584 150.842C174.082 150.866 173.601 151.064 173.215 151.405C172.433 152.274 173.203 153.674 173.179 154.874C173.152 156.223 172.019 157.318 170.79 157.68C169.536 157.948 168.242 157.931 166.995 157.63L158.603 156.251C161.075 155.416 163.274 153.863 164.951 151.77C166.056 150.386 166.643 147.802 165.047 147.147C164.573 147.009 164.079 146.967 163.59 147.023C159.788 147.055 156.796 143.697 153.237 142.283C150.959 141.436 148.486 141.373 146.172 142.103C143.858 142.832 141.822 144.317 140.354 146.345L144.824 146.573C145.245 146.548 145.662 146.666 146.015 146.909C146.994 147.76 145.776 149.396 145.914 150.729C146.094 152.461 148.268 152.831 149.907 153.006C151.546 153.181 153.625 154.59 152.837 156.12C144.599 159.121 136.216 150.253 127.565 151.344C125.375 151.621 123.308 152.531 121.17 153.103C108.111 156.598 94.6097 147.273 81.269 149.248C78.3032 149.782 75.3884 150.596 72.559 151.677C70.7433 152.308 68.8494 152.99 67.5302 154.452C66.2109 155.915 65.7088 158.416 66.9586 159.945C63.5138 160.245 60.046 159.896 56.7164 158.915C57.6168 159.445 58.3658 160.221 58.8849 161.162C59.404 162.103 59.674 163.175 59.6665 164.264C54.2879 165.192 49.0517 166.881 44.0987 169.286C45.0231 170.912 46.1029 172.433 47.3209 173.826L40.5117 178.453C42.8122 179.066 44.0016 182.384 42.6638 184.457C45.0491 183.334 46.5274 180.43 49.0781 179.842C50.7492 179.456 52.4495 180.179 54.0347 180.858C55.62 181.538 57.3623 182.196 59.0034 181.687C60.6445 181.177 61.8549 178.926 60.8121 177.492C67.8265 175.327 75.0757 174.129 82.38 173.927C82.9435 173.853 83.515 173.967 84.0135 174.255C84.9643 174.953 84.7141 176.46 84.6629 177.683C84.6117 178.906 85.5128 180.513 86.5461 179.962C85.3304 181.077 86.3696 183.177 87.536 184.349C88.7023 185.522 90.108 187.14 89.394 188.665C89.2076 189.063 88.8915 189.382 88.7122 189.783C88.1829 190.969 89.0233 192.351 90.0145 193.139C91.0058 193.926 92.2199 194.476 92.9085 195.567C93.597 196.657 93.2843 198.566 92.0531 198.718L88.5535 194.018C87.3578 195.329 86.5381 196.973 86.1894 198.757C89.9005 201.966 90.4587 208.497 87.3518 212.358C85.7641 214.331 83.5063 215.53 81.5358 217.069C79.5652 218.608 77.7418 220.799 77.7467 223.39C77.7553 227.867 77.4095 232.025 78.9953 236.176C81.9194 243.828 85.2955 251.279 89.1034 258.483C90.1034 260.375 91.3958 262.448 93.4216 262.774C90.8614 256.181 88.5567 249.486 86.5076 242.688C87.8423 242.694 89.3846 242.806 90.167 243.95C90.8149 244.897 90.6757 246.184 90.877 247.334C91.1331 248.448 91.5601 249.509 92.1409 250.477L104.366 273.512C105.38 275.422 106.542 277.472 108.479 278.245C109.718 278.74 111.151 278.646 112.29 279.358C113.184 279.916 113.786 280.907 114.696 281.432C117.272 282.918 120.853 280.068 123.26 281.843C123.948 282.35 124.386 283.156 125.02 283.737C127.243 285.773 130.889 284.411 133.455 285.93C135.109 286.909 135.966 288.866 136.848 290.641C139.058 295.085 142.633 299.439 147.368 299.793C148.856 299.904 150.375 299.606 151.829 299.956C153.283 300.306 154.714 301.648 154.481 303.206C154.081 305.876 155.328 308.801 154.993 311.482C154.383 316.365 147.835 318.511 147.272 323.4C147.149 324.471 147.342 325.576 147.101 326.624C146.805 327.908 145.894 328.954 145.57 330.23C144.956 332.649 146.594 335.057 148.394 336.684C150.194 338.312 152.341 339.715 153.325 341.994C154.366 344.402 153.855 347.21 154.193 349.833C154.931 355.56 159.608 359.805 164.42 362.543C165.887 363.377 167.461 364.184 168.41 365.631C169.649 367.52 169.525 370.009 169.939 372.266C170.952 377.792 175.35 382.346 175.475 387.973C175.564 391.973 173.462 395.602 172.206 399.376C171.029 402.992 170.603 406.834 170.957 410.64C171.311 414.446 172.438 418.127 174.259 421.431C175.198 423.108 176.322 424.69 176.986 426.509C178.172 429.755 177.787 433.444 178.88 436.726C180.326 441.065 184.298 444.648 183.918 449.231C185.721 453.192 189.702 455.138 193.706 456.317L200.882 458.43C202.256 458.835 203.692 459.242 205.091 458.949C206.49 458.657 207.825 457.428 207.789 455.92C204.27 455.08 200.638 454.187 197.738 451.919C194.837 449.651 192.85 445.612 193.95 441.978C194.461 440.293 195.547 438.347 194.514 436.955C193.923 436.158 192.843 435.95 192.176 435.222C191.136 434.088 191.493 432.182 192.241 430.814C192.988 429.446 194.069 428.224 194.37 426.676C194.523 425.81 194.421 424.916 194.079 424.113C193.737 423.31 193.171 422.637 192.457 422.184C193.788 421.653 194.998 420.832 196.009 419.774C196.943 418.645 197.374 416.906 196.64 415.623C198.822 415.916 201.397 416.059 202.83 414.294C203.974 412.884 203.895 410.776 203.443 408.981C202.991 407.186 202.227 405.442 202.203 403.584C207.237 403.837 212.281 403.656 217.287 403.043C216.563 400.465 214.918 398.286 212.701 396.968C214.968 396.563 217.033 393.692 217.75 391.381C218.466 389.069 218.283 386.552 217.84 384.165C217.67 383.551 217.647 382.901 217.773 382.275C218.028 381.415 218.827 380.889 219.567 380.44L230.819 373.604C231.491 373.248 232.099 372.773 232.619 372.199C233.798 370.734 233.623 368.523 233.019 366.708C232.416 364.894 231.449 363.187 231.216 361.279C230.521 355.573 236.296 351.479 238.244 346.107C239.009 343.999 239.165 341.708 239.313 339.455C239.472 337.036 239.484 334.226 237.728 332.667C236.045 331.173 233.414 331.506 231.653 330.116C230.038 328.842 229.481 326.366 227.717 325.337C226.114 324.402 224.106 324.997 222.324 324.557C219.186 323.783 217.212 319.958 214.007 319.604C212.2 319.404 210.153 320.339 208.672 319.225C207.366 318.244 207.314 316.271 207.065 314.598C206.63 311.996 205.451 309.599 203.688 307.728C201.925 305.857 199.662 304.603 197.204 304.133C195.34 303.817 193.311 303.937 191.726 302.854C190.12 301.757 189.384 299.702 188.122 298.183C186.09 295.734 182.888 294.864 179.889 294.118L167.689 291.085C165.524 290.546 162.732 290.26 161.57 292.267C161.226 293.031 160.983 293.841 160.846 294.675C160.411 296.184 159.535 297.507 158.343 298.456C157.152 299.404 155.707 299.929 154.216 299.954C153.194 298.109 151.537 296.754 149.593 296.17C148.356 295.805 147.032 295.765 145.852 295.228C145.209 294.896 144.637 294.429 144.171 293.856C143.705 293.282 143.355 292.614 143.141 291.892C142.928 291.17 142.856 290.41 142.93 289.658C143.004 288.906 143.222 288.177 143.572 287.517C144.275 286.193 144.547 284.66 144.345 283.156C144.143 281.652 143.478 280.26 142.454 279.195C140.379 277.225 137.378 276.749 134.596 276.946C133.868 275.264 135.086 273.367 136.399 272.145C137.712 270.923 139.306 269.721 139.591 267.896C140.041 265.026 136.579 262.846 133.949 263.702C131.32 264.558 129.642 267.259 128.533 269.921C127.897 271.449 127.356 273.058 126.352 274.346C125.348 275.634 123.731 276.557 122.202 276.143C120.037 275.558 119.201 272.837 118.722 270.529C118.079 267.431 117.433 264.291 117.567 261.123C117.702 257.955 118.712 254.703 120.92 252.558C124.519 249.064 130.039 249.406 134.896 249.964C133.748 248.596 134.032 246.292 135.26 245.004C135.908 244.395 136.686 243.963 137.528 243.744C138.37 243.525 139.25 243.527 140.091 243.749C141.554 244.071 142.873 244.905 143.834 246.116C145.214 247.896 145.606 250.299 146.65 252.319C147.693 254.34 150.038 256.063 151.958 254.979C153.617 254.043 153.88 251.61 153.467 249.671C153.054 247.731 152.178 245.845 152.327 243.863C152.613 240.081 156.319 237.804 159.589 236.247C162.86 234.689 166.605 232.595 167.123 228.84C167.141 228.105 167.272 227.378 167.511 226.688C167.874 226.078 168.378 225.577 168.975 225.231C178.52 218.559 188.224 211.805 199.134 208.159C199.701 207.969 199.768 208.18 200.346 208.032C201.156 207.537 200.619 206.168 199.843 205.616C199.067 205.064 198.03 204.642 197.833 203.675C197.688 202.964 198.084 202.266 198.187 201.547C198.439 199.781 196.442 198.15 194.89 198.856C194.014 197.628 195.748 196.202 197.15 195.794C201.36 194.568 205.682 193.821 210.042 193.566C210.545 193.481 211.061 193.574 211.509 193.83C212.242 194.366 212.148 195.597 211.629 196.363C211.11 197.129 210.303 197.61 209.656 198.258C208.949 198.986 208.445 199.905 208.199 200.916C207.953 201.926 207.974 202.989 208.259 203.988C210.535 205.212 213.01 206.473 215.531 206.042C218.052 205.61 220.29 202.614 219.105 200.221C218.001 197.993 214.686 197.49 214.116 195.048C213.449 192.188 217.276 189.645 216.414 186.845C216.036 185.618 214.88 184.896 213.994 184.01C212.946 182.924 212.234 181.529 211.95 180.007C211.666 178.485 211.824 176.908 212.402 175.482C210.958 175.751 209.473 175.649 208.074 175.186C206.674 174.723 205.399 173.911 204.357 172.819C202.433 170.765 200.898 167.524 198.165 167.616C195.658 167.701 193.498 170.795 191.153 169.851C190.576 169.619 189.968 169.146 189.409 169.423C189.226 169.549 189.072 169.717 188.96 169.915C188.847 170.113 188.778 170.335 188.759 170.565C188.163 173.579 189.188 177.012 187.635 179.616C185.946 182.449 182.038 182.842 179.99 185.397C178.878 186.785 178.447 188.654 177.425 190.116C176.403 191.578 174.234 192.508 173.007 191.234C173.61 189.923 173.775 188.434 173.474 187.012C173.174 185.589 172.426 184.317 171.353 183.402C170.214 182.616 168.987 181.984 167.699 181.522C166.261 180.878 164.892 180.071 163.618 179.116C162.979 178.708 162.461 178.121 162.119 177.42C161.85 176.542 161.886 175.59 162.222 174.738C162.844 172.852 163.941 171.181 165.395 169.906C166.849 168.632 168.604 167.801 170.472 167.505C172.105 167.27 174.005 167.353 175.086 166.036C175.658 165.34 175.958 164.287 176.788 164.004C177.319 163.892 177.87 163.963 178.359 164.209L184.455 166.478C185.135 166.803 185.883 166.934 186.626 166.858C186.994 166.806 187.33 166.608 187.566 166.304C187.802 166.001 187.921 165.614 187.899 165.222C187.704 164.151 186.147 163.637 186.288 162.557C186.368 162.207 186.546 161.891 186.798 161.65C188.998 159.174 191.688 157.242 194.676 155.994C197.664 154.746 200.876 154.212 204.082 154.431C204.851 155.767 203.635 157.35 202.622 158.491C201.61 159.632 200.796 161.67 202.021 162.549C202.522 162.82 203.08 162.952 203.644 162.935C205.144 163.15 206.603 163.618 207.963 164.321C210.069 165.291 212.135 166.352 214.161 167.504C213.982 166.091 213.811 164.603 214.317 163.282C214.823 161.961 216.262 160.925 217.519 161.44C218.73 161.935 219.351 163.632 220.641 163.787C222.362 163.994 223.041 161.305 222.322 159.638C221.603 157.971 220.18 156.575 220.061 154.747C219.981 153.514 220.425 151.985 219.493 151.238C219.162 151.014 218.786 150.874 218.395 150.83L195.142 146.304C193.762 146.035 191.767 146.241 191.705 147.725C191.671 148.553 192.371 149.373 192.061 150.134C191.73 150.947 190.644 150.872 189.853 151.16C188.626 151.606 188.01 153.148 188.128 154.515C188.344 155.873 188.841 157.164 189.584 158.295C188.072 157.626 185.782 157.503 184.269 156.834Z" fill="#3F3D56"/>
<path d="M165.716 135.955C164.25 135.442 162.67 135.418 161.19 135.887C159.711 136.356 158.403 137.294 157.445 138.575C157.062 139.109 156.741 139.844 157.061 140.421C157.521 141.249 158.692 140.922 159.555 140.626C160.824 140.146 162.205 140.112 163.494 140.526C164.305 140.821 165.03 141.341 165.844 141.624C166.24 141.8 166.674 141.858 167.099 141.792C167.524 141.726 167.924 141.539 168.257 141.251C168.815 140.649 168.851 139.712 168.852 138.867C168.89 138.585 168.869 138.297 168.789 138.024C168.709 137.752 168.573 137.501 168.39 137.291C168.064 137.092 167.698 136.977 167.321 136.957C166.479 136.792 165.717 136.322 165.168 135.626" fill="#3F3D56"/>
<path d="M174.101 133.486C173.772 133.467 173.445 133.538 173.15 133.691C172.856 133.845 172.603 134.076 172.417 134.363C172.231 134.649 172.118 134.982 172.089 135.328C172.059 135.674 172.115 136.023 172.249 136.34C173.257 136.63 174.31 136.703 175.345 136.553C175.861 136.468 176.342 136.224 176.727 135.85C177.112 135.477 177.384 134.991 177.508 134.455C176.29 134.689 175.033 134.435 173.982 133.742" fill="#3F3D56"/>
<path d="M202.231 129.362C199.488 129.979 196.824 130.936 194.293 132.214C195.486 132.699 196.5 133.577 197.186 134.718C197.872 135.858 198.193 137.202 198.102 138.55C197.995 139.068 198.008 139.606 198.138 140.117C198.43 140.865 199.275 141.145 200.017 141.337C201.352 141.767 202.745 141.955 204.138 141.893C204.835 141.855 205.512 141.633 206.108 141.248C206.704 140.863 207.199 140.327 207.55 139.688C207.752 139.082 207.988 138.49 208.259 137.915C210.039 135.047 215.327 138.514 217.239 135.743C217.912 134.766 217.85 133.297 218.728 132.523C219.182 132.186 219.708 131.973 220.259 131.905C224.103 131.097 227.985 130.512 231.889 130.153C233.739 129.983 236.15 129.28 236.165 127.316C229.198 125.869 221.974 126.897 215.616 130.24C213.325 131.454 210.295 134.007 208.089 132.398C207.263 131.795 207.303 130.173 206.166 129.496C205.004 128.803 203.465 129.085 202.231 129.362Z" fill="#3F3D56"/>
<path d="M225.016 133.869L228.287 134.534C227.685 134.506 227.084 134.614 226.524 134.851C225.965 135.087 225.46 135.448 225.042 135.908C224.625 136.367 224.305 136.916 224.104 137.517C223.903 138.118 223.825 138.757 223.876 139.392C226.939 140.475 230.278 139.421 233.504 139.565C236.731 139.709 240.485 142.147 239.934 145.513C239.767 146.53 239.211 147.547 239.5 148.534C239.703 149.225 240.28 149.716 240.605 150.353C241.283 151.68 240.741 153.358 239.885 154.564C239.029 155.771 237.878 156.733 237.126 158.015C235.257 161.204 236.319 165.326 237.433 168.888C237.755 170.234 238.349 171.489 239.175 172.568C240.825 174.424 243.513 174.585 245.921 174.622C247.673 174.649 249.68 174.558 250.788 173.122C252.235 171.247 251.224 168.321 252.176 166.121C253.041 164.122 255.245 163.265 257.242 162.657C260.9 161.543 264.629 160.596 268.087 158.913C272.382 156.823 276.395 153.567 281.116 153.298C282.44 153.223 283.797 153.388 285.073 153.004C286.348 152.62 287.56 151.454 287.463 150.055C287.381 148.859 286.425 147.982 285.678 147.08C284.93 146.179 284.344 144.793 285.03 143.84L297.403 141.396C296.526 138.867 295.843 135.538 297.858 133.892C298.585 133.298 299.559 133.061 300.178 132.343C301.233 131.12 300.702 129.012 299.484 127.972C298.266 126.931 296.619 126.69 295.059 126.553C289.634 126.076 284.178 126.391 278.742 126.706C268.117 127.322 257.491 127.938 246.866 128.554C244.727 128.678 242.257 128.489 240.296 129.261C238.635 129.914 237.454 131.114 235.555 131.535C232.048 132.313 228.189 131.787 225.016 133.869Z" fill="#3F3D56"/>
<path d="M283.608 161.215C283.274 161.159 282.934 161.241 282.656 161.443C282.472 161.657 282.363 161.931 282.346 162.22C282.135 163.493 282.386 164.804 283.05 165.89C283.388 166.423 283.855 166.85 284.402 167.127C284.949 167.404 285.556 167.522 286.16 167.467C287.633 167.269 288.718 165.94 290.072 165.291C292.159 164.293 301.02 162.736 294.89 159.233C292.778 158.025 291.413 159.091 289.748 159.886C287.853 160.911 285.73 161.371 283.608 161.215Z" fill="#3F3D56"/>
<path d="M337.3 131.892C336.584 132.201 335.985 132.752 335.597 133.46C335.418 133.819 335.377 134.237 335.481 134.628C335.586 135.018 335.828 135.351 336.158 135.558C336.425 135.661 336.709 135.708 336.993 135.698L339.904 135.79C341.14 135.829 342.684 136.108 343.017 137.368C343.263 138.304 342.711 139.507 343.378 140.176C343.663 140.41 344.007 140.552 344.368 140.584C345.326 140.845 346.328 140.879 347.3 140.684C349.418 140.083 348.305 138.716 348.972 137.499C349.993 135.636 349.816 136.764 351.614 135.696C352.942 134.908 354.658 133.478 353.55 131.468C351.622 127.974 340.144 130.39 337.3 131.892Z" fill="#3F3D56"/>
<path d="M394.746 130.135L393.056 130.373C389.245 130.911 385.412 131.454 381.742 132.665C383.331 133.329 384.998 133.762 386.697 133.951C387.632 134 388.561 134.139 389.472 134.368C391.094 134.879 392.727 136.197 394.294 135.522C395.265 135.103 395.582 134.034 396.386 133.467C396.942 133.075 399.048 132.442 399.284 132.047C401.188 128.853 396.21 129.928 394.746 130.135Z" fill="#3F3D56"/>
<path d="M402.167 138.26C399.91 139.595 397.815 141.218 395.93 143.091C395.136 143.881 394.325 144.863 394.397 146.013C394.493 147.542 396.033 148.429 397.366 149.026L402.769 151.446C403.425 150.468 402.825 149.12 402.147 148.159C401.47 147.199 400.665 146.088 400.964 144.932C401.306 143.614 402.826 143.164 404.1 142.937C406.177 142.567 411.779 142.597 411.106 139.057C410.313 134.885 404.252 137.027 402.167 138.26Z" fill="#3F3D56"/>
<path d="M401.081 374.33C400.566 375.905 400.518 377.76 401.407 379.135C402.406 380.678 404.404 381.254 406.132 380.862C407.854 380.378 409.388 379.334 410.519 377.879C411.553 376.66 412.404 375.279 413.042 373.786C413.932 371.459 414.56 369.03 414.912 366.548L416.59 357.231C416.965 355.149 416.95 348.766 413.332 350.845C412.344 351.414 410.056 355.9 409.02 357.172C407.153 359.464 406.906 361.689 405.923 364.467C404.693 367.946 402.219 370.845 401.081 374.33Z" fill="#3F3D56"/>
<path d="M592.162 422.004C590.978 421.516 589.829 420.937 588.724 420.273C587.616 423.495 587.027 426.891 586.982 430.32L595.082 425.471C596.301 424.742 597.682 423.728 597.656 422.248C597.667 422.065 597.631 421.882 597.552 421.719C597.473 421.556 597.354 421.418 597.208 421.32C597.028 421.244 596.832 421.22 596.64 421.25C595.439 421.356 594.344 421.981 593.21 422.416C592.077 422.85 590.752 423.08 589.713 422.435" fill="#3F3D56"/>
<path d="M634.894 424.883C634.005 425.139 633.136 425.469 632.296 425.869C630.437 426.869 629.173 428.77 627.5 430.087C625.899 431.348 623.972 432.041 622.08 432.714C621.524 433.234 621.78 434.282 622.384 434.739C623.033 435.13 623.778 435.307 624.523 435.248C626.488 435.294 628.559 435.314 630.28 434.31C631.25 433.644 632.158 432.882 632.991 432.034C635.004 430.258 637.421 429.086 639.813 427.953C640.684 427.605 641.489 427.096 642.191 426.449C643.695 424.882 643.8 422.465 641.632 421.932C639.881 421.501 636.562 424.312 634.894 424.883Z" fill="#3F3D56"/>
<path d="M653.775 411.837C653.872 410.759 653.737 409.672 653.378 408.657C653.02 407.642 652.449 406.727 651.707 405.98C651.685 408.137 651.623 410.435 650.476 412.219C649.659 413.49 648.378 414.348 647.482 415.559C646.587 416.77 646.19 418.688 647.24 419.751C647.911 420.291 648.729 420.589 649.572 420.6C651.663 420.861 654.082 421.006 655.548 419.408C656.349 418.536 656.738 417.245 657.714 416.604C658.078 416.442 658.402 416.197 658.664 415.885C659.067 415.207 658.427 414.314 657.706 414.07C656.985 413.826 656.191 413.94 655.466 413.708C654.742 413.477 654.077 412.615 654.449 411.918" fill="#3F3D56"/>
<path d="M620.218 332.751C619.121 333.034 617.985 333.104 616.865 332.961C615.004 332.599 613.555 331.115 612.053 329.898C608.481 327.022 604.139 325.417 599.651 325.315C595.568 325.233 591.447 326.404 587.438 325.587C587.7 327.128 588.947 328.284 590.277 328.972C591.607 329.659 593.076 330.005 594.412 330.678C596.553 331.766 598.251 333.635 599.195 335.941C599.626 337.004 599.897 338.161 600.549 339.089C601.882 340.986 604.408 341.403 606.638 341.248C609.546 341.045 612.582 340.161 615.287 341.307C617.356 342.183 618.837 344.099 620.564 345.588C622.292 347.078 624.725 348.183 626.709 347.109C624.649 346.403 622.855 345.019 621.591 343.159C620.326 341.299 619.657 339.06 619.68 336.769C621.626 336.958 627.23 336.885 626.928 333.388C626.673 330.424 621.888 332.432 620.218 332.751Z" fill="#3F3D56"/>
<path d="M594.765 356.865C595.11 354.86 597 353.09 596.411 351.151C596.004 349.809 594.534 349.147 593.202 349.114C591.87 349.081 590.562 349.5 589.231 349.54C588.364 349.491 587.496 349.504 586.631 349.579C583.988 350.038 582.359 352.969 579.868 354.011C578.353 354.644 576.652 354.523 575.077 354.961C571.501 355.955 569.239 359.529 566.74 362.41C562.701 367.045 557.44 370.291 551.638 371.726C549.605 372.224 547.419 372.543 545.804 373.939C543.664 375.789 543.137 378.96 542.661 381.839C541.346 389.791 539.335 397.596 536.656 405.155L545.146 406.302C546.76 406.52 548.433 406.733 549.988 406.227C551.118 405.776 552.189 405.173 553.173 404.433C556.954 401.95 561.186 400.334 565.595 399.69C567.818 399.367 570.149 399.308 572.236 400.182C574.322 401.056 576.112 403.039 576.287 405.405C577.189 405.108 578.15 405.076 579.069 405.312C579.987 405.549 580.827 406.044 581.5 406.746C582.829 408.179 583.7 410.017 583.988 412.001C584.212 413.23 584.436 414.702 585.514 415.218C586.393 415.638 587.402 415.185 588.363 415.104C591.628 414.828 594.336 418.853 597.544 418.16C600.985 417.417 601.83 411.966 605.187 410.874C607.115 410.247 609.819 411.009 610.742 409.113C611.556 407.441 609.932 405.511 610.1 403.639C610.306 401.334 612.877 400.355 614.858 399.372C621.69 395.981 624.933 386.254 621.622 379.08C619.66 374.829 615.801 371.484 615.088 366.814C614.539 363.222 615.878 359.032 613.713 356.205C612.611 354.766 610.746 353.972 610.091 352.255C609.678 351.175 609.844 349.949 609.622 348.808C609.4 347.666 608.458 346.473 607.393 346.768C604.3 347.627 603.313 357.734 601.657 360.19C599.14 363.922 593.972 361.464 594.765 356.865Z" fill="#3F3D56"/>
<path d="M537.595 336.57C536.538 336.257 535.384 335.948 534.371 336.396C533.359 336.844 532.767 338.417 533.58 339.197C539.939 338.935 546.337 338.675 552.642 339.588C559.906 340.641 567.095 343.248 574.391 342.481C570.223 341.18 565.987 340.14 561.703 339.367L554.561 337.923C552.645 337.499 550.709 337.182 548.761 336.975C544.686 336.619 541.602 337.758 537.595 336.57Z" fill="#3F3D56"/>
<path d="M543.961 313.144C543.433 313.097 542.779 313.057 542.506 313.537C542.245 313.996 542.544 314.602 542.404 315.116C542.212 315.819 541.342 315.998 540.657 315.903C539.971 315.807 539.23 315.578 538.622 315.928C538.314 316.15 538.083 316.472 537.963 316.846C537.842 317.219 537.84 317.624 537.956 317.999C538.204 318.744 538.606 319.421 539.131 319.982C540.03 321.179 541.053 322.265 542.182 323.218C544.368 324.925 547.328 325.747 548.705 328.224C548.899 328.704 549.198 329.129 549.576 329.465C550.237 329.907 551.099 329.571 551.81 329.227L554.304 328.021C554.753 327.85 555.154 327.562 555.47 327.183C556.04 326.365 555.69 325.202 555.212 324.321C554.733 323.44 554.121 322.528 554.224 321.518C554.407 319.717 556.596 319.029 557.496 317.488C558.403 315.935 557.813 313.933 557.917 312.111C558.04 309.98 559.306 307.207 557.269 305.615C555.537 304.262 553.883 305.512 552.64 307.006C550.019 310.157 548.779 313.569 543.961 313.144Z" fill="#3F3D56"/>
<path d="M559.1 281.299C559.951 283.023 561.726 284.052 562.654 285.732C563.661 287.552 563.546 289.904 564.638 291.668C565.758 293.479 568.012 294.44 568.641 296.499C569.326 298.746 567.77 301.479 569.011 303.443C569.242 303.764 569.534 304.03 569.868 304.226C570.202 304.421 570.57 304.541 570.95 304.578C571.33 304.615 571.713 304.568 572.075 304.44C572.437 304.313 572.77 304.107 573.053 303.835C573.576 303.233 573.856 302.439 573.833 301.621C573.81 300.804 573.486 300.028 572.931 299.46C572.196 298.751 571.142 298.445 570.528 297.618C570.209 297.14 569.996 296.593 569.906 296.015C569.572 294.351 569.626 292.626 570.062 290.988C570.226 290.572 570.268 290.114 570.182 289.673C569.906 288.824 568.819 288.764 568.057 288.37C566.325 287.476 566.367 284.89 566.669 282.877C566.468 284.217 561.954 281.937 561.481 281.178C560.542 279.67 561.053 276.76 560.867 275.094C558.84 276.127 558.059 279.19 559.1 281.299Z" fill="#3F3D56"/>
<path d="M513.625 307.832C512.792 306.845 511.537 305.813 510.42 306.408C509.568 306.862 509.333 308.109 509.667 309.054C510.074 309.973 510.701 310.763 511.485 311.346C513.812 313.377 516.319 315.21 518.35 317.57C521.984 321.795 523.909 327.495 527.861 331.386C528.655 332.289 529.707 332.891 530.856 333.101C532.007 333.214 533.3 332.434 533.433 331.219C533.542 330.218 532.882 329.322 532.237 328.581C530.702 326.814 529.021 325.188 527.572 323.342C526.902 322.634 526.482 321.704 526.379 320.708C526.372 319.714 527.229 318.674 528.139 318.92C527.032 318.621 526.211 316.67 524.586 316.303C523.228 315.997 522.9 316.886 521.284 316.153C518.201 314.754 515.783 310.387 513.625 307.832Z" fill="#3F3D56"/>
<path d="M586.047 211.77C585.163 211.492 584.294 211.164 583.443 210.786C581.155 210.06 578.127 211.839 578.432 214.346C578.635 216.011 580.1 217.134 580.909 218.579C582.109 220.721 581.789 223.438 581.159 225.838C581.004 226.581 580.709 227.283 580.293 227.903C579.71 228.558 579.014 229.087 578.242 229.463C575.152 231.297 572.426 233.746 570.217 236.676C569.976 236.946 569.809 237.28 569.732 237.642C569.623 238.488 570.427 239.105 570.882 239.811C571.892 241.379 571.162 243.489 571.262 245.383C571.246 245.651 571.296 245.919 571.406 246.161C571.516 246.403 571.682 246.611 571.889 246.766C572.498 247.093 573.219 246.537 573.549 245.905C574.644 243.806 573.82 240.438 575.874 239.426C576.262 239.234 576.734 239.154 576.993 238.793C577.404 238.22 577.007 237.372 577.216 236.687C577.529 235.659 578.858 235.613 579.878 235.659C581.635 235.736 583.391 235.489 585.068 234.928C585.726 234.762 586.323 234.396 586.786 233.875C587.4 233.065 587.346 231.912 587.223 230.881C586.609 225.743 585.07 220.776 582.69 216.25C584.495 216.494 586.458 216.705 588.015 215.71C588.887 215.153 589.933 213.487 589.5 212.354C588.816 210.561 587.581 212.07 586.047 211.77Z" fill="#3F3D56"/>
<path d="M354.709 240.03C354.925 241.255 355.137 242.545 354.757 243.725C354.378 244.905 353.184 245.891 352.056 245.529C351.181 245.249 350.676 244.318 350.054 243.608C346.599 239.662 338.803 241.947 336.668 237.065C335.797 235.073 336.389 232.686 335.795 230.583C335.42 229.367 334.674 228.318 333.674 227.599C332.674 226.881 331.477 226.534 330.271 226.613C329.17 226.781 328.099 227.119 327.092 227.617C320.343 230.476 313.257 232.351 306.031 233.189C304.657 233.277 303.299 233.539 301.984 233.968C299.016 235.106 296.989 238.016 295.546 240.985C294.103 243.955 293.038 247.17 291.103 249.808C289.07 252.58 286.221 254.522 283.564 256.622C282.54 257.32 281.687 258.265 281.076 259.379C280.5 260.631 280.533 262.086 280.578 263.477L281.121 280.37C281.191 282.543 281.278 284.793 282.198 286.738C283.346 289.166 285.614 290.756 287.187 292.901C288.793 295.105 289.629 297.829 289.555 300.61C289.521 301.729 289.416 303.051 290.239 303.754C290.74 304.097 291.326 304.275 291.923 304.266L313.526 306.136C317.326 306.465 321.538 307.006 324.019 310.069C325.19 311.514 326.13 313.592 327.924 313.747C328.693 313.814 329.442 313.48 330.211 313.415C332.152 313.253 333.858 314.811 334.934 316.528C336.563 319.145 337.303 322.269 337.031 325.389C336.855 327.347 336.281 329.251 336.157 331.214C335.686 338.682 341.671 345.171 341.787 352.655C341.856 357.057 339.88 361.17 337.954 365.073C341.062 370.055 338.517 376.688 339.755 382.512C340.929 388.037 345.284 392.362 346.369 397.908C346.866 400.447 346.895 403.571 349.011 404.878C349.94 405.357 350.969 405.575 352 405.511C358.221 405.589 364.371 404.108 369.946 401.19C372.563 399.816 375.275 397.765 375.732 394.713C376.101 392.252 374.921 389.499 376.122 387.355C377.537 384.828 381.163 385.028 383.245 383.086C386.624 379.934 383.989 373.923 385.358 369.383C386.589 365.303 390.824 363.135 392.924 359.473C393.75 357.898 394.343 356.198 394.682 354.433C395.643 350.214 396.242 345.912 396.47 341.578C396.526 338.946 396.71 336.318 397.02 333.705C399.284 318.83 413.186 308.869 417.7 294.578C418.131 293.214 418.334 291.396 417.186 290.624C416.505 290.28 415.733 290.195 415 290.382L405.041 291.71C403.804 291.875 402.493 292.029 401.357 291.485C400.222 290.942 399.407 289.422 400.01 288.267C401.701 285.027 398.222 280.931 396.676 277.61C392.514 268.668 387.556 260.164 381.872 252.214C381.508 251.805 381.28 251.281 381.223 250.723L384.049 250.822C383.095 247.201 381.52 243.238 378.195 241.914C376.32 241.167 374.245 241.425 372.245 241.541C366.518 241.872 360.377 240.957 354.709 240.03Z" fill="#3F3D56"/>
<path d="M372.25 158.424C373.749 160.108 375.428 161.893 377.597 162.186C381.427 162.705 384.181 158.515 385.934 154.876C385.999 155.804 386.403 156.668 387.061 157.285C387.72 157.902 388.579 158.224 389.458 158.181C390.403 158.012 391.306 157.639 392.108 157.085C399.697 152.698 408.197 150.373 416.845 150.32C416.762 149.628 416.924 148.927 417.301 148.353C417.678 147.779 418.242 147.373 418.885 147.214C420.643 146.845 422.227 148.453 423.075 150.124C423.923 151.794 424.452 153.73 425.8 154.98C427.147 156.231 429.756 156.176 430.289 154.366C430.8 152.627 429.088 151.145 427.665 150.12C426.243 149.095 424.744 147.199 425.702 145.686C432.968 143.985 440.279 142.277 447.714 141.939C448.98 141.986 450.241 141.756 451.419 141.264C452.553 140.675 453.455 139.339 453.15 138.043C451.527 138.446 449.828 138.33 448.268 137.707C446.709 137.085 445.36 135.986 444.393 134.549C454.71 133.649 465.683 132.881 474.826 138.016C475.923 140.507 470.331 142.58 471.827 144.827C472.305 145.544 473.261 145.628 474.089 145.644C480.443 145.769 486.833 145.892 493.115 144.877C495.411 144.506 497.729 143.983 500.034 144.283C503.873 144.784 507.156 147.494 510.933 148.377C512.47 148.737 514.194 148.749 515.49 147.803C516.786 146.857 517.343 144.704 516.281 143.474C519.837 139.788 525.739 140.702 530.43 142.466C535.121 144.231 539.565 147.078 544.53 147.471C548.091 147.753 551.701 146.74 555.219 147.384C557.43 147.789 559.488 148.829 561.648 149.468C565.735 150.677 570.058 150.422 574.301 150.48C585.128 150.634 595.836 152.885 605.896 157.121C607.205 157.572 608.404 158.321 609.408 159.316C610.344 160.376 610.822 162.024 610.193 163.313L599.797 161.706C600.777 163.746 603.311 164.093 605.368 164.797C607.426 165.5 609.56 167.904 608.323 169.781C606.093 169.03 604.073 171.388 602.947 173.557C601.821 175.727 600.448 178.325 598.112 178.457C596.019 178.575 593.489 176.691 592.125 178.373C594.009 180.888 595.623 183.616 596.935 186.508C598.283 189.477 599.242 193.219 597.421 195.89C597.135 196.367 596.7 196.723 596.192 196.898C594.705 197.296 593.739 195.372 592.672 194.205C591.328 192.735 589.296 192.319 587.475 191.63C585.655 190.94 583.738 189.584 583.596 187.545C583.507 186.276 584.14 185.096 584.607 183.923C585.391 181.947 585.734 179.806 585.609 177.666C585.507 175.945 585.051 174.154 583.882 172.951C582.713 171.749 580.695 171.367 579.441 172.469C578.855 172.983 578.386 173.805 577.626 173.836C576.283 173.89 575.251 171.413 574.171 172.258C574.298 173.159 574.121 174.079 573.672 174.856C570.447 177.823 565.493 176.568 561.335 177.616C559.358 178.214 557.465 179.089 555.707 180.216C555.049 180.513 554.489 181.01 554.098 181.644C553.579 182.711 554.151 184.077 555.066 184.787C556.036 185.416 557.126 185.809 558.257 185.939C563.326 186.954 568.468 188.526 572.47 191.97C576.472 195.413 579.096 201.106 577.829 206.396L567.834 196.293C568.214 200.535 568.429 204.788 568.48 209.054C568.545 209.887 568.437 210.724 568.164 211.508C567.451 213.173 565.52 213.733 563.827 214.101C563.357 214.195 562.91 214.394 562.517 214.684C562.124 214.974 561.794 215.349 561.548 215.784C561.302 216.219 561.145 216.704 561.089 217.207C561.032 217.71 561.077 218.22 561.22 218.704C561.821 220.777 563.321 222.393 564.693 224.004C566.066 225.614 567.417 227.445 567.597 229.605C567.776 231.765 566.236 234.2 564.191 234.05C562.64 233.936 561.49 232.468 560.829 230.98C560.167 229.493 559.774 227.835 558.78 226.571C555.773 222.746 549.018 224.385 546.324 220.306C545.637 221.13 545.161 222.126 544.941 223.199C544.72 224.273 544.763 225.388 545.064 226.439C546.317 225.609 548.033 226.38 548.975 227.586C549.917 228.792 550.361 230.338 551.1 231.693C552.098 233.521 553.686 235.141 553.826 237.246C553.789 238.042 553.801 238.84 553.864 239.635C554.111 240.91 555.13 241.826 555.837 242.893C557.482 245.374 557.401 248.782 556.341 251.598C555.281 254.413 553.376 256.765 551.49 259.046C548.195 263.029 544.834 266.99 540.928 270.298C539.813 271.242 538.624 272.17 537.93 273.489C537.236 274.809 537.2 276.662 538.267 277.665C537.503 277.706 536.135 278.103 535.371 278.143C535.103 274.905 535.045 271.651 535.197 268.404C532.185 266.874 528.942 270.971 529.331 274.481C529.719 277.991 532.119 280.808 533.828 283.845C535.078 286.066 536.007 288.655 535.589 291.202C535.172 293.748 533.023 296.097 530.589 295.873C526.718 295.515 525.098 289.636 521.264 288.963C520.926 288.879 520.571 288.917 520.255 289.069C519.686 289.4 519.587 290.205 519.555 290.891C519.398 294.257 519.263 297.757 520.505 300.861C522.322 305.401 527.017 309.215 526.032 314.034C520.727 311.425 517.968 305.132 516.716 299.087C515.464 293.041 515.255 286.695 513.01 280.98C511.305 283.291 507.722 281.381 506.164 278.956C504.687 276.657 503.778 273.998 502.346 271.668C500.913 269.338 498.718 267.252 496.093 267.124C493.342 266.99 490.955 268.987 488.856 270.875C487.13 272.427 485.358 274.04 484.35 276.185C482.882 279.307 483.266 282.988 483.195 286.473C483.118 290.242 482.363 294.218 479.935 296.977C477.507 299.736 473.025 300.697 470.346 298.211C468.948 296.913 468.271 294.973 467.668 293.111C464.761 284.137 462.34 274.995 460.417 265.73C459.967 267.844 458.211 270.57 456.534 269.324C456.158 268.99 455.853 268.574 455.64 268.105C452.511 262.497 446.718 259.133 440.865 257.116C435.011 255.099 428.852 254.158 423.064 251.941C419.82 250.698 416.722 249.066 413.83 247.076C413.093 248.221 412.662 249.557 412.584 250.94C412.506 252.323 412.783 253.703 413.386 254.934C414.67 257.339 417.576 258.73 420.063 257.889C421.348 257.455 422.434 256.511 423.709 256.045C424.984 255.579 426.696 255.808 427.254 257.108C427.788 258.352 426.981 259.857 427.381 261.155C427.991 263.134 430.811 263.286 431.798 265.086C432.532 266.426 431.928 268.205 430.88 269.286C429.832 270.366 428.434 270.959 427.155 271.712C423.005 274.153 420.053 278.32 416.426 281.563C412.799 284.805 407.681 287.172 403.359 285.092C404.389 279.573 398.174 275.521 397.03 270.027C396.654 268.219 396.849 266.298 396.312 264.535C395.534 261.984 393.394 260.23 391.638 258.296C389.509 255.925 387.85 253.128 386.759 250.068C385.669 247.008 385.169 243.748 385.289 240.48C385.384 238.21 385.778 235.902 385.289 233.689C384.8 231.476 383.068 229.333 380.921 229.434C376.018 229.663 369.841 230.049 367.269 225.628C366.351 224.05 365.952 221.739 367.279 220.53C368.215 219.677 369.597 219.757 370.827 219.885L381.874 221.035C384.458 221.304 387.251 221.526 389.468 220.097C391.685 218.668 392.646 214.876 390.593 213.195C389.093 211.966 386.405 212.033 385.969 210.08C385.606 208.454 387.308 206.608 386.389 205.249C385.729 204.275 384.248 204.545 383.35 205.276C382.452 206.006 381.801 207.075 380.796 207.628C379.033 208.598 376.927 207.675 375.03 207.047C373.134 206.419 370.591 206.366 369.672 208.229C368.643 210.313 370.584 213.043 369.563 215.131C368.213 217.892 363.642 216.32 361.746 218.695C359.571 221.42 363.226 225.483 362.493 228.964C361.556 229.454 360.515 229.68 359.472 229.618C358.428 229.556 357.418 229.209 356.539 228.61C355.675 227.988 354.986 227.13 354.546 226.127C354.106 225.124 353.931 224.014 354.04 222.914C354.222 221.349 354.993 219.75 354.476 218.27C354.058 217.074 352.923 216.362 351.867 215.745L341.132 209.47C340.135 211.426 341.395 213.85 342.971 215.319C344.547 216.788 346.521 217.894 347.556 219.827C348.211 221.167 348.358 222.72 347.966 224.17C347.575 225.62 346.675 226.858 345.451 227.629C345.297 227.742 345.123 227.817 344.939 227.851C344.755 227.885 344.567 227.876 344.387 227.826C344.216 227.719 344.066 227.578 343.948 227.409C343.829 227.24 343.744 227.048 343.697 226.844C341.803 221.717 338.959 216.662 334.412 213.983C329.866 211.305 323.333 211.856 320.351 216.368C319.643 217.439 319.168 218.661 318.551 219.794C315.274 225.813 308.247 228.664 301.683 228.478C301.04 228.515 300.401 228.356 299.842 228.02C298.781 227.245 298.829 225.6 298.992 224.247L299.681 218.505C299.819 217.352 300.02 216.078 300.882 215.358C302.098 214.344 303.853 214.984 305.402 214.96C306.575 214.902 307.703 214.464 308.633 213.705C309.563 212.946 310.25 211.902 310.6 210.716C310.913 209.519 310.911 208.254 310.594 207.057C310.278 205.861 309.658 204.778 308.803 203.927C308.093 203.221 307.14 202.336 307.515 201.385C307.665 201.122 307.867 200.897 308.108 200.725C308.349 200.554 308.622 200.44 308.908 200.393C311.69 199.538 314.63 199.314 317.365 198.306C320.101 197.297 322.754 195.234 323.402 192.248C323.6 191.333 323.691 190.224 324.468 189.77C324.858 189.596 325.277 189.505 325.7 189.504C327.183 189.281 328.534 188.478 329.485 187.255C330.437 186.031 330.921 184.475 330.843 182.892C332.154 181.923 333.991 182.636 335.259 183.667C336.527 184.697 337.647 186.059 339.19 186.503C342.066 187.331 344.845 184.638 347.826 184.625C349.079 184.62 350.377 185.089 351.556 184.639C352.752 184.184 353.466 182.925 354.383 181.995C355.3 181.065 356.91 180.498 357.757 181.5L357.036 175.847C358.489 176.236 360.003 176.291 361.478 176.009C362.953 175.727 364.353 175.114 365.586 174.212L356.262 170.88C355.937 170.794 355.638 170.625 355.39 170.387C354.712 169.615 355.385 168.412 355.937 167.534C357.255 165.434 357.477 161.976 355.308 160.93C353.828 160.217 352.129 161.073 350.708 161.911L343.903 165.925C343.687 167.293 345.269 168.069 346.249 168.99C346.842 169.548 347.262 170.282 347.453 171.097C347.644 171.911 347.598 172.768 347.321 173.554C347.043 174.341 346.548 175.02 345.899 175.503C345.249 175.986 344.478 176.25 343.684 176.26C344.132 176.876 344.444 177.591 344.595 178.352C344.747 179.113 344.734 179.9 344.559 180.655L339.981 181.003C339.467 181.113 338.933 181.002 338.496 180.697C338.006 180.237 338.072 179.43 337.959 178.748C337.685 177.101 336.16 175.947 334.605 175.651C333.049 175.355 331.457 175.734 329.916 176.109C329.262 176.358 328.544 176.341 327.901 176.06C327.533 175.807 327.253 175.433 327.104 174.995C326.429 173.263 327.06 171.227 328.145 169.745C329.229 168.264 330.715 167.181 332.048 165.948C335.238 162.988 337.581 159.143 338.813 154.848C341.334 153.731 343.944 152.213 346.464 151.096C350.35 149.015 354.708 148.122 359.048 148.517L367.584 148.69C370.111 148.741 372.707 148.806 375.044 149.825C377.38 150.845 379.434 153.049 379.595 155.717C379.644 156.019 379.619 156.329 379.523 156.619C379.428 156.908 379.264 157.167 379.048 157.371C378.718 157.561 378.344 157.65 377.969 157.628C375.612 157.716 374.607 158.337 372.25 158.424Z" fill="#3F3D56"/>
<path d="M304.211 186.723C304.545 186.389 304.785 185.964 304.905 185.495C305.025 185.026 305.021 184.532 304.893 184.065C304.081 183.734 303.198 183.649 302.343 183.82C301.489 183.99 300.696 184.41 300.055 185.032C299.549 185.573 299.113 186.182 298.759 186.844C297.637 188.78 296.645 191.092 297.295 193.256C297.348 193.492 297.445 193.714 297.58 193.91C297.715 194.106 297.886 194.271 298.083 194.396C298.374 194.52 298.688 194.572 299.001 194.548C300.237 194.547 301.472 194.466 302.698 194.308C303.451 194.21 304.326 193.985 304.617 193.244C305 192.269 304.074 191.167 304.344 190.151C304.521 189.697 304.791 189.289 305.133 188.956C305.302 188.789 305.433 188.581 305.513 188.351C305.594 188.121 305.623 187.874 305.598 187.63C305.489 187.153 304.799 186.883 304.551 187.297" fill="#3F3D56"/>
<path d="M310.619 177.935C309.521 177.669 308.39 177.594 307.269 177.713C307.021 177.705 306.776 177.764 306.555 177.885C306.342 178.051 306.187 178.288 306.115 178.558C305.879 179.362 305.937 180.23 306.278 180.99C306.62 181.751 307.219 182.347 307.958 182.661C308.36 182.758 308.746 182.922 309.1 183.146C310.048 183.924 309.444 185.513 309.623 186.767C309.825 188.176 311.113 189.358 310.877 190.76C310.691 191.865 309.575 192.74 309.755 193.845C309.943 195.004 311.333 195.352 312.44 195.445C313.082 195.564 313.743 195.483 314.343 195.214C314.944 194.779 315.372 194.124 315.543 193.375C315.997 191.948 316.187 190.441 316.105 188.937C316.1 188.254 315.937 187.581 315.632 186.979C315.298 186.501 314.928 186.053 314.526 185.64C312.404 183.028 314.638 179.134 310.619 177.935Z" fill="#3F3D56"/>
<path opacity="0.8" d="M589.678 382.482C589.678 382.482 427.142 283.793 357.168 302.492C357.168 302.492 208.873 319.373 191.686 356.511C191.686 356.511 144.546 200.686 127.359 195.492" stroke="#6C63FF" stroke-width="2" stroke-miterlimit="10"/>
<path opacity="0.8" d="M191.686 356.511C218.939 279.638 464.462 194.453 464.462 194.453C429.598 203.803 357.168 302.492 357.168 302.492C357.168 302.492 203.962 184.584 127.359 195.492C127.359 195.492 464.707 207.179 589.679 382.482" stroke="#6C63FF" stroke-width="2" stroke-miterlimit="10"/>
<path d="M127.359 203.023C131.291 203.023 134.479 199.651 134.479 195.492C134.479 191.332 131.291 187.96 127.359 187.96C123.427 187.96 120.239 191.332 120.239 195.492C120.239 199.651 123.427 203.023 127.359 203.023Z" fill="#6C63FF"/>
<path d="M191.686 364.043C195.618 364.043 198.806 360.671 198.806 356.511C198.806 352.352 195.618 348.98 191.686 348.98C187.754 348.98 184.566 352.352 184.566 356.511C184.566 360.671 187.754 364.043 191.686 364.043Z" fill="#6C63FF"/>
<path d="M464.462 201.985C468.394 201.985 471.582 198.613 471.582 194.453C471.582 190.293 468.394 186.921 464.462 186.921C460.53 186.921 457.342 190.293 457.342 194.453C457.342 198.613 460.53 201.985 464.462 201.985Z" fill="#6C63FF"/>
<path d="M589.678 390.014C593.611 390.014 596.799 386.642 596.799 382.482C596.799 378.323 593.611 374.951 589.678 374.951C585.746 374.951 582.558 378.323 582.558 382.482C582.558 386.642 585.746 390.014 589.678 390.014Z" fill="#6C63FF"/>
<path d="M357.168 310.023C361.101 310.023 364.289 306.651 364.289 302.492C364.289 298.332 361.101 294.96 357.168 294.96C353.236 294.96 350.048 298.332 350.048 302.492C350.048 306.651 353.236 310.023 357.168 310.023Z" fill="#6C63FF"/>
</svg>
