<svg width="429" height="280" viewBox="0 0 429 280" fill="none" xmlns="http://www.w3.org/2000/svg">
<path d="M229.067 140C229.067 132.574 233.576 125.452 241.603 120.201C249.629 114.95 260.515 112 271.867 112C283.218 112 294.104 114.95 302.131 120.201C310.157 125.452 314.667 132.574 314.667 140C314.667 147.426 310.157 154.548 302.131 159.799C294.104 165.05 283.218 168 271.867 168C260.515 168 249.629 165.05 241.603 159.799C233.576 154.548 229.067 147.426 229.067 140Z" fill="#011936"/>
<path fill-rule="evenodd" clip-rule="evenodd" d="M43.6 0C32.2487 0 21.3624 2.94999 13.3358 8.20101C5.30928 13.452 0.800003 20.5739 0.800003 28L0.800003 233.333C0.800003 240.759 5.30928 247.881 13.3358 253.132C21.3624 258.383 32.2487 261.333 43.6 261.333H57.8667V280H86.4V261.333H343.2V280H371.733V261.333H386C397.351 261.333 408.238 258.383 416.264 253.132C424.291 247.881 428.8 240.759 428.8 233.333V28C428.8 20.5739 424.291 13.452 416.264 8.20101C408.238 2.94999 397.351 0 386 0L43.6 0ZM57.8667 56V112H86.4V56H57.8667ZM271.867 93.3333C252.948 93.3333 234.804 98.25 221.426 107.002C208.049 115.753 200.533 127.623 200.533 140C200.533 152.377 208.049 164.247 221.426 172.998C234.804 181.75 252.948 186.667 271.867 186.667C290.785 186.667 308.929 181.75 322.307 172.998C335.685 164.247 343.2 152.377 343.2 140C343.2 127.623 335.685 115.753 322.307 107.002C308.929 98.25 290.785 93.3333 271.867 93.3333ZM57.8667 205.333V149.333H86.4V205.333H57.8667Z" fill="#011936"/>
</svg>
