<svg width="350" height="200" viewBox="0 0 350 200" fill="none" xmlns="http://www.w3.org/2000/svg">
<g clip-path="url(#clip0)">
<path d="M350 197.739H0V200H350V197.739Z" fill="#85848B"/>
<path d="M277.291 157.824C277.291 159.563 265.823 164.633 252.201 164.633C238.579 164.633 227.965 159.563 227.965 157.824C227.965 156.085 239.006 156.645 252.641 156.645C266.277 156.645 277.291 156.082 277.291 157.824Z" fill="#504F60"/>
<path opacity="0.2" d="M277.291 157.824C277.291 159.563 265.823 164.633 252.201 164.633C238.579 164.633 227.965 159.563 227.965 157.824" fill="black"/>
<path d="M140.106 125.917C142.317 126.168 144.611 126.327 146.729 125.72C147.062 125.628 147.429 125.425 147.396 125.13C147.372 125.023 147.321 124.922 147.246 124.835C146.447 123.777 145.777 122.648 145.245 121.467C145.224 121.405 145.18 121.351 145.121 121.313C145.053 121.291 144.977 121.291 144.908 121.313C143.931 121.54 143.087 122.097 142.117 122.336C141.622 122.456 141.106 122.49 140.596 122.436C140.156 122.392 139.556 122.071 139.156 122.112C139.383 123.4 139.936 124.603 140.106 125.917Z" fill="#6C63FF"/>
<path d="M181.92 122.654C183.377 121.77 184.888 120.842 185.748 119.477C185.809 119.396 185.845 119.301 185.851 119.203C185.837 119.107 185.794 119.015 185.728 118.938C184.908 117.786 183.853 116.78 182.617 115.97C181.971 116.373 181.389 116.848 180.883 117.385C180.516 117.726 179.502 118.269 179.492 118.79C179.492 119.085 179.879 119.427 180.059 119.675C180.302 119.993 180.532 120.317 180.753 120.647C180.879 120.809 182.036 122.59 181.92 122.654Z" fill="#6C63FF"/>
<path d="M148.773 129.863C148.799 130.167 148.705 130.469 148.506 130.718C148.35 130.856 148.158 130.958 147.946 131.013C144.855 131.991 141.277 130.771 138.192 131.735C137.558 131.932 136.958 132.218 136.321 132.407C135.562 132.609 134.779 132.731 133.987 132.772C132.897 132.864 131.8 132.923 130.706 132.949C129.875 133.001 129.04 132.937 128.231 132.758C127.827 132.666 127.449 132.501 127.123 132.272C126.796 132.043 126.527 131.755 126.334 131.428C126.166 131.135 126.133 130.797 126.241 130.482C126.289 130.375 126.358 130.275 126.444 130.188C126.653 129.98 126.899 129.804 127.171 129.666L128.308 129.018C128.841 128.684 129.421 128.413 130.032 128.21C130.482 128.08 130.959 128.024 131.416 127.915C133.013 127.503 134.234 126.383 135.368 125.307L136.915 123.848C137.06 123.687 137.243 123.558 137.452 123.468C137.666 123.405 137.894 123.385 138.119 123.412C139.622 123.507 141.073 123.937 142.337 124.661C142.66 124.876 143.009 125.057 143.377 125.204C144.284 125.516 145.448 125.28 146.285 124.885C146.682 124.697 146.595 124.591 146.762 124.255C146.929 123.919 147.336 123.704 147.689 124.01C147.796 124.116 147.871 124.244 147.909 124.381C148.243 125.354 148.116 126.4 148.116 127.42C148.106 127.58 148.129 127.739 148.183 127.892C148.268 128.045 148.369 128.191 148.486 128.328C148.51 128.364 148.531 128.401 148.549 128.44C148.753 128.891 148.83 129.38 148.773 129.863Z" fill="#514E7F"/>
<path d="M148.773 129.863C148.799 130.167 148.705 130.469 148.506 130.718C148.351 130.856 148.158 130.958 147.946 131.013C144.855 131.991 141.277 130.771 138.192 131.735C137.559 131.932 136.958 132.218 136.321 132.407C135.562 132.609 134.779 132.731 133.987 132.772C132.897 132.864 131.8 132.923 130.706 132.949C129.875 133.001 129.04 132.937 128.231 132.758C127.827 132.666 127.45 132.501 127.123 132.272C126.796 132.043 126.527 131.755 126.334 131.428C126.166 131.135 126.133 130.797 126.241 130.482C126.289 130.375 126.358 130.275 126.444 130.188C126.624 130.521 126.754 130.963 126.868 131.122C127.021 131.358 127.229 131.562 127.479 131.721C127.728 131.88 128.013 131.99 128.315 132.044C128.766 132.069 129.219 132.018 129.649 131.894C132.45 131.281 135.428 131.272 138.119 130.344C139.042 130.023 139.923 129.595 140.893 129.401C141.864 129.206 142.894 129.259 143.894 129.186C145.475 129.074 147.006 128.652 148.563 128.431C148.764 128.886 148.836 129.378 148.773 129.863Z" fill="#464353"/>
<path d="M188.999 122.475C188.852 123.512 188.108 124.405 187.291 125.162C186.474 125.92 185.551 126.601 184.9 127.473C184.1 128.555 183.74 129.896 182.7 130.809C182.3 131.142 181.851 131.424 181.366 131.649C180.822 131.933 180.246 132.167 179.648 132.348C178.094 132.787 176.42 132.687 174.796 132.581C174.269 132.576 173.747 132.487 173.256 132.319C173.032 132.218 172.818 132.102 172.615 131.971C172.208 131.749 171.866 131.446 171.615 131.087C171.492 130.891 171.457 130.661 171.518 130.444C171.611 130.205 171.771 129.99 171.982 129.819C172.347 129.483 172.74 129.171 173.156 128.885C173.727 128.559 174.241 128.162 174.683 127.706C174.954 127.346 175.154 126.947 175.273 126.527C175.509 125.792 175.654 125.036 175.703 124.272C175.702 123.765 175.761 123.259 175.88 122.763C176.127 121.985 176.78 121.29 176.707 120.485C176.677 120.37 176.689 120.249 176.74 120.14C176.818 120.055 176.926 119.996 177.047 119.972C177.557 119.793 178.094 119.682 178.641 119.645C178.916 119.628 179.191 119.666 179.447 119.754C179.703 119.843 179.933 119.981 180.122 120.158C180.349 120.4 180.499 120.747 180.832 120.842C180.997 120.882 181.171 120.888 181.339 120.859C182.159 120.786 183.026 120.694 183.673 120.226C183.972 119.989 184.213 119.7 184.379 119.376C184.545 119.053 184.634 118.703 184.64 118.348C184.64 118.08 184.504 117.8 184.974 117.759C185.327 117.718 185.607 118.054 185.787 118.26C186.438 119.029 187.105 119.834 187.348 120.771C187.443 120.739 187.543 120.722 187.645 120.721C187.853 120.719 188.058 120.762 188.243 120.846C188.429 120.929 188.588 121.051 188.709 121.201C188.974 121.582 189.077 122.033 188.999 122.475Z" fill="#514E7F"/>
<path d="M188.998 122.475C188.852 123.512 188.108 124.405 187.291 125.163C186.474 125.92 185.551 126.601 184.9 127.473C184.1 128.555 183.74 129.896 182.699 130.81C182.3 131.142 181.851 131.424 181.366 131.649C180.822 131.933 180.246 132.167 179.648 132.348C178.094 132.787 176.42 132.687 174.797 132.581C174.269 132.576 173.747 132.487 173.256 132.319C173.032 132.218 172.818 132.102 172.616 131.971C172.209 131.749 171.866 131.446 171.615 131.087C171.928 130.954 172.269 130.881 172.616 130.874C173.336 130.91 173.863 131.511 174.553 131.697C175.537 131.959 176.517 131.346 177.514 131.137C178.164 131.001 178.848 131.036 179.492 130.842C180.028 130.659 180.523 130.393 180.955 130.058C181.548 129.684 182.074 129.235 182.519 128.726C182.889 128.217 183.196 127.674 183.436 127.108C183.963 126.022 184.583 124.974 185.29 123.972C185.395 123.813 185.522 123.667 185.667 123.536C185.824 123.409 186.001 123.32 186.177 123.208C186.844 122.763 187.121 122.03 187.355 121.31C187.418 121.092 187.506 120.88 187.618 120.677C187.826 120.675 188.031 120.718 188.216 120.802C188.402 120.885 188.561 121.007 188.682 121.157C188.969 121.546 189.081 122.016 188.998 122.475Z" fill="#464353"/>
<path d="M119.074 30.584C119.905 31.1337 120.588 31.838 121.075 32.6471C121.542 33.4546 124.233 39.7206 124.076 40.6313C124.954 39.8503 128.412 39.7235 129.299 38.9425C129.669 38.6153 131.666 36.9825 131.966 36.6023C132.266 36.2221 134.494 35.4234 134.737 35.0226C135.648 33.5814 128.282 28.1201 129.225 26.6965C129.277 26.6311 129.304 26.5525 129.302 26.4725C129.28 26.4053 129.238 26.345 129.179 26.2986C128.575 25.7534 127.775 25.4144 127.048 25.0107C126.321 24.6069 125.62 24.044 125.424 23.3012C124.73 23.5833 124.094 23.9636 123.54 24.4271C122.188 25.4508 120.86 26.4951 119.555 27.5601C119.044 27.9786 118.057 28.5356 117.821 29.1339C117.541 29.7764 118.588 30.2333 119.074 30.584Z" fill="#A1616A"/>
<path d="M130.999 28.2645C129.869 28.9357 128.812 29.6995 127.844 30.5457C126.931 31.3444 126.063 32.2698 125.843 33.3868C125.75 33.826 125.763 34.271 125.687 34.7161C125.353 36.6466 123.466 38.0612 122.632 39.8679C122.391 40.4256 122.213 41.0032 122.102 41.5921C121.868 42.7085 121.739 43.8403 121.718 44.9756C121.698 46.0749 122.919 46.8324 123.366 47.858C123.813 48.8837 123.933 49.9388 124.159 50.991C124.586 52.9775 125.37 54.8932 126.16 56.7972C127.804 60.8114 133.133 71.9079 134.777 75.925C139.816 74.808 153.228 72.2409 157.69 69.8861C159.177 69.1021 147.369 60.2573 148.96 59.6472C149.05 59.6347 149.137 59.6037 149.212 59.5566C149.287 59.5095 149.349 59.4476 149.392 59.3759C149.435 59.3041 149.459 59.2245 149.462 59.1432C149.464 59.0619 149.445 58.9811 149.406 58.9074C147.816 52.7594 142.84 47.7077 140.583 41.7218C139.799 39.6439 138.392 37.8697 137.325 35.895C136.358 34.106 135.841 32.1284 134.684 30.4278C134.466 30.0774 134.18 29.7633 133.84 29.4994C133.551 29.3038 133.239 29.1368 132.91 29.0013C132.249 28.7183 131.636 28.5504 130.999 28.2645Z" fill="#514E7F"/>
<path d="M119.341 29.8855C123.697 29.8855 127.228 26.7648 127.228 22.9152C127.228 19.0655 123.697 15.9448 119.341 15.9448C114.986 15.9448 111.455 19.0655 111.455 22.9152C111.455 26.7648 114.986 29.8855 119.341 29.8855Z" fill="#A1616A"/>
<path d="M127.365 26.1896C127.758 25.8692 128.251 25.6616 128.781 25.5943C129.31 25.5269 129.85 25.603 130.329 25.8124C130.863 26.057 131.33 26.5521 131.209 27.0709L135.121 27.1239C135.744 27.1089 136.366 27.1593 136.975 27.2742C137.588 27.3922 138.135 27.6955 138.522 28.1319C138.569 28.1879 138.622 28.2557 138.702 28.2645C138.768 28.2654 138.831 28.2467 138.883 28.2115C139.484 27.9447 140.162 27.8421 140.83 27.9167C142.944 28.0376 144.898 28.9719 146.556 30.139C146.854 30.3206 147.086 30.5758 147.223 30.8729C147.359 31.2649 147.196 31.757 147.556 32.037C147.556 35.2791 148.817 38.3089 149.657 41.4684C149.807 42.0313 150.417 42.5294 150.841 42.9715C151.364 43.4616 151.791 44.0254 152.104 44.6396C152.818 46.2783 151.834 48.2059 152.528 49.8505C152.821 50.546 153.388 51.1178 153.862 51.722C154.486 52.4196 154.881 53.2558 155.002 54.1388C155.032 54.5337 154.976 54.9316 155.002 55.3177C155.047 55.8487 155.159 56.3736 155.336 56.8827C155.62 57.8337 155.918 58.7837 156.229 59.7327C156.736 61.2653 157.397 62.9187 158.951 63.7351C155.199 64.2981 151.244 64.8492 147.669 63.6968C147.171 63.5465 146.697 63.3373 146.262 63.0749C144.972 62.2615 144.348 60.8704 143.791 59.5559C143.171 58.0822 142.541 56.5821 142.414 55.0141C142.415 54.5154 142.335 54.0191 142.177 53.5405C141.814 52.6857 140.843 52.17 139.963 51.6955C138.969 51.214 138.068 50.5951 137.295 49.8622C136.912 49.4931 136.618 49.0584 136.432 48.5849C136.246 48.1114 136.172 47.6092 136.215 47.1095C136.281 46.6232 136.498 46.1546 136.518 45.6653C136.538 45.1761 136.291 44.6161 135.761 44.4864C133.03 43.7555 131.726 40.8966 131.119 38.4327C130.858 37.1592 130.74 35.8658 130.769 34.5717L130.733 32.0577C130.356 31.7546 130.053 31.387 129.842 30.977C129.631 30.5671 129.516 30.1235 129.505 29.6733C129.542 29.4106 129.536 29.1448 129.489 28.8834C129.357 28.564 129.142 28.2764 128.862 28.0435C128.259 27.4965 127.754 26.8714 127.365 26.1896Z" fill="#464353"/>
<path d="M118.965 34.1591C118.875 34.9372 119.075 35.7359 118.878 36.4992C118.801 36.7939 118.668 37.0887 118.571 37.3628C118.276 38.4615 118.403 39.616 118.935 40.6431C119.465 41.6601 120.1 42.6319 120.832 43.5462C121.08 43.8583 121.283 44.1958 121.439 44.5512C121.565 44.9244 121.643 45.309 121.672 45.6977C121.866 47.2584 122.175 48.8062 122.599 50.3308C122.973 51.6512 127.215 62.9393 128.202 63.9856C128.381 64.2173 128.653 64.3805 128.962 64.4424C129.185 64.4499 129.407 64.4094 129.609 64.3246L131.61 63.6467C131.78 63.6007 131.938 63.5245 132.073 63.4227C132.261 63.2291 132.363 62.982 132.36 62.7271C132.504 61.2888 128.252 49.9212 127.712 48.5625C126.078 44.4598 123.903 40.5046 122.84 36.2575C122.543 35.0786 122.386 33.2631 121.409 32.3229C121.006 31.9339 121.142 32.0989 120.659 32.3023C120.414 32.396 120.178 32.5053 119.952 32.6294C119.669 32.8033 119.433 33.0309 119.262 33.2956C119.092 33.5602 118.99 33.8552 118.965 34.1591Z" fill="#464353"/>
<path d="M125.037 41.9429C125.573 44.451 126.127 46.9532 126.677 49.4614L134.507 47.6488C134.57 46.9238 134.134 46.2518 133.84 45.5857C133.126 44.003 133.11 42.2405 132.533 40.6136C132.096 39.3758 131.336 38.2381 130.926 36.9914C130.689 36.2664 130.569 35.5178 130.335 34.7839C130.085 34.0632 129.777 33.359 129.415 32.6766C128.975 31.6869 128.402 30.7477 127.708 29.8796C126.707 30.2097 125.64 30.5929 125.07 31.3916C124.777 31.8416 124.611 32.3468 124.583 32.8652C124.446 34.4184 125.083 35.9805 124.873 37.5249C124.657 38.9956 124.712 40.4877 125.037 41.9429Z" fill="#6C63FF"/>
<path d="M134.637 75.3061C135.077 76.7798 134.44 78.3301 133.92 79.789C133.137 81.9864 132.603 84.2473 132.326 86.5382C132.292 87.1213 132.159 87.6965 131.933 88.2447C131.686 88.7369 131.266 89.1525 130.979 89.6211C130.192 90.8531 130.212 92.3562 130.382 93.765C130.495 94.6934 130.665 95.6188 130.875 96.5325C131.132 97.6495 131.449 98.8166 131.079 99.9071C131.699 99.7863 132.119 100.497 132.079 101.054C132.039 101.611 131.836 102.233 132.139 102.713C132.906 102.961 132.913 103.892 132.89 104.614C132.902 105.866 133.081 107.112 133.423 108.328C134.584 113.259 135.815 118.177 137.118 123.082C139.936 123.854 143.227 124.658 145.915 123.589C146.415 123.391 146.915 123.076 147.029 122.598C147.058 122.341 147.021 122.081 146.922 121.838L145.648 117.741C145.338 116.751 145.028 115.728 145.191 114.711C145.315 113.954 145.688 113.138 145.268 112.468C145.125 112.239 144.898 112.059 144.731 111.841C144.064 110.977 144.414 109.822 144.468 108.776C144.488 108.541 144.47 108.304 144.414 108.074C144.323 107.805 144.195 107.547 144.034 107.305C142.981 105.498 142.476 103.482 142.567 101.452C142.607 101.192 142.566 100.929 142.45 100.688C142.369 100.589 142.297 100.485 142.233 100.376C142.184 100.187 142.208 99.988 142.303 99.8128C141.921 99.5565 141.576 99.2596 141.276 98.9286C141.461 98.827 141.618 98.6896 141.734 98.5267C141.85 98.3638 141.922 98.1798 141.946 97.9884C141.97 97.7971 141.944 97.6035 141.871 97.4222C141.798 97.241 141.679 97.0768 141.523 96.9422C141.659 96.918 141.785 96.8609 141.886 96.7774C141.988 96.6938 142.061 96.587 142.098 96.4688C142.135 96.3506 142.134 96.2257 142.096 96.1079C142.057 95.9901 141.982 95.8841 141.88 95.8016C141.716 95.7014 141.5 95.6572 141.383 95.5068C141.203 95.2887 141.35 94.9852 141.496 94.7523L142.273 93.5115C142.854 92.589 142.984 91.4484 143.607 90.5642C144.501 89.2763 145.085 87.841 145.661 86.4204L147.906 80.9472L149.416 82.1055C149.919 82.4453 150.341 82.8701 150.657 83.3552C150.872 83.8346 151.007 84.3388 151.06 84.8524C151.614 87.8233 153.728 90.3992 154.512 93.3259C154.685 93.9772 154.802 94.661 155.225 95.218C155.377 95.389 155.513 95.5704 155.632 95.7603C155.742 96.0501 155.8 96.3535 155.802 96.6592C155.872 97.2579 156.087 97.8362 156.432 98.3549C156.777 98.8736 157.245 99.3206 157.803 99.6655C158.547 100.116 159.47 100.426 159.874 101.139C159.955 101.36 160.067 101.571 160.207 101.767C160.567 102.15 161.344 102.194 161.498 102.675C161.584 102.943 161.424 103.264 161.594 103.5C161.691 103.609 161.819 103.693 161.965 103.745L164.136 104.702C166.563 105.775 167.804 108.239 169.594 110.034C170.213 110.619 170.76 111.259 171.228 111.944C172.002 113.167 172.359 114.703 173.666 115.481C174.017 115.642 174.337 115.852 174.613 116.102C175.023 116.58 174.873 117.249 174.91 117.85C174.947 118.451 175.467 119.168 176.114 118.985C175.887 119.713 175.887 120.482 176.114 121.21C178.954 121.081 181.662 120.112 183.803 118.457C184.437 117.968 185.047 117.343 185.054 116.601C185.064 116.472 185.031 116.344 184.961 116.232C184.832 116.087 184.663 115.974 184.47 115.905C182.44 114.932 181.829 112.678 180.802 110.847C179.905 109.232 178.578 107.841 177.468 106.341C175.053 103.114 173.406 99.2086 169.754 97.0777C168.951 96.6091 168.017 96.1936 167.614 95.4184C167.39 94.9852 167.363 94.49 167.187 94.042C167.01 93.5941 166.587 93.1579 166.046 93.1579C166.346 92.5095 166.286 91.7196 166.306 91.0181C166.327 90.7068 166.286 90.3947 166.186 90.0956C166.048 89.7739 165.867 89.4673 165.649 89.182C164.697 87.7563 164.22 86.1213 164.276 84.4663C164.302 83.6145 164.472 82.7362 164.182 81.9228C164.035 81.5131 163.779 81.1388 163.602 80.7439C163.336 80.0283 163.195 79.2808 163.185 78.5275L162.985 75.6952C162.955 74.7519 162.816 73.8138 162.572 72.8952C161.905 70.6966 161.238 61.4863 158.953 60.4488C156.669 59.4114 152.744 66.4996 150.173 66.6382C149.036 66.68 147.912 66.8717 146.839 67.207C145.128 67.7729 143.694 68.828 142.297 69.8595L137.568 73.3698C136.568 74.0977 135.741 74.7933 134.637 75.3061Z" fill="#464353"/>
<path d="M111.941 15.1756C112.982 13.9201 114.769 13.254 116.53 13.198C118.291 13.142 120.025 13.6312 121.602 14.3238C122.067 14.5578 122.565 14.7381 123.082 14.8602C123.916 15.0105 124.843 14.8101 125.597 15.155C126.597 15.6236 126.791 16.8172 126.704 17.8075C126.617 18.7978 126.407 19.8971 127.004 20.7548C127.216 20.9994 127.408 21.2564 127.581 21.524C127.838 22.0339 127.688 22.6234 127.534 23.1627C127.144 22.868 126.924 22.423 126.577 22.0811C126.23 21.7392 125.627 21.5093 125.197 21.7657C124.766 22.0221 124.773 22.4878 124.75 22.9063C124.726 23.3248 124.606 23.8259 124.16 23.9615C123.973 23.999 123.778 23.9862 123.599 23.9247C123.421 23.8633 123.268 23.7559 123.159 23.6166C122.395 22.7914 122.702 21.4739 121.945 20.6428C121.515 20.1712 120.798 19.9414 120.401 19.4462C120.088 19.0572 120.008 18.562 119.734 18.1435C119.461 17.725 118.824 17.4185 118.401 17.7073C118.256 17.8294 118.135 17.9718 118.044 18.1288C117.78 18.4631 117.396 18.709 116.954 18.8266C116.512 18.9443 116.039 18.9269 115.609 18.7772C115.282 18.5993 114.927 18.4633 114.556 18.3734C114.313 18.3627 114.071 18.4122 113.859 18.5163C113.646 18.6205 113.47 18.7752 113.352 18.9629C113.113 19.3379 112.997 19.7647 113.018 20.1948C113.018 20.7843 113.138 21.4121 112.758 21.8836C112.614 22.0611 112.433 22.2131 112.225 22.3316C111.668 22.647 110.891 22.8592 110.377 22.4996C110.203 22.3563 110.074 22.1759 110.001 21.9756C109.929 21.7754 109.916 21.562 109.964 21.3561C110.064 20.9458 110.195 20.5421 110.357 20.1477C110.651 19.234 110.267 18.2054 110.587 17.3448C110.923 16.5697 111.378 15.8397 111.941 15.1756Z" fill="#464353"/>
<path d="M116.167 35.9687C116.117 36.1835 116.142 36.4067 116.24 36.6083C116.339 36.7455 116.474 36.8597 116.634 36.9413C117.755 37.5588 119.03 37.924 120.348 38.0053C120.528 38.008 120.704 38.0484 120.862 38.1232C121.175 38.3059 121.195 38.7126 121.079 39.0368C120.923 39.3427 120.842 39.6741 120.842 40.0094C120.939 40.6254 121.766 40.8936 122.463 40.985C123.44 41.094 124.51 41.038 125.284 40.4987C125.808 40.0762 126.207 39.5471 126.447 38.9573C128.362 35.0698 129.032 30.7726 130.969 26.897C131.116 26.6439 131.214 26.371 131.259 26.0894C131.28 25.9485 131.257 25.8052 131.194 25.6746C131.131 25.544 131.029 25.4308 130.899 25.3467C130.539 25.1492 129.979 25.2612 129.735 24.9517C129.615 24.7955 129.629 24.5833 129.522 24.4183C129.299 24.0676 128.712 24.1236 128.312 23.9202C127.998 23.7728 127.781 23.4693 127.431 23.4103C127.259 23.4017 127.088 23.4287 126.93 23.4891C126.771 23.5494 126.632 23.6415 126.521 23.7581C125.384 24.6953 124.787 26.0246 124.153 27.2801C123.186 29.2047 122.053 31.061 120.765 32.8328C120.915 32.6265 120.045 31.0644 119.705 30.9966C119.108 30.8905 118.344 31.816 118.021 32.1608C117.006 33.2485 116.363 34.5694 116.167 35.9687Z" fill="#6C63FF"/>
<path opacity="0.1" d="M128.281 24.1943C128.041 24.1978 127.806 24.2489 127.592 24.3438C127.378 24.4387 127.19 24.5749 127.044 24.7425C126.687 25.1521 126.617 25.6944 126.527 26.2161C126.223 27.8689 125.556 29.4529 124.563 30.8787" fill="black"/>
<path opacity="0.1" d="M129.982 25.3702C129.652 25.3767 129.329 25.4593 129.045 25.6096C128.762 25.76 128.527 25.9731 128.365 26.2279C128.144 26.6915 128.007 27.1828 127.958 27.6839C127.672 28.7948 127.121 29.8389 126.341 30.7461" fill="black"/>
<path d="M209.234 82.9897V79.3292C209.233 76.6345 208.021 74.0505 205.865 72.1453C203.709 70.2401 200.785 69.1699 197.736 69.1699H34.1736C31.1247 69.1699 28.2007 70.2401 26.0445 72.1453C23.8883 74.0505 22.6765 76.6345 22.6757 79.3292V86.0785L209.234 82.9897Z" fill="#33323D"/>
<path d="M79.6754 64.8786C79.6754 64.8786 79.2085 90.4788 84.3439 98.9021C89.4793 107.325 91.6802 143.969 91.6802 143.969C91.6802 143.969 145.515 148.891 183.03 138.075C220.545 127.258 300.37 122.834 300.37 122.834L286.918 42.7003C286.918 42.7003 220.462 38.9337 182.657 54.8697C144.851 70.8056 79.6754 64.8786 79.6754 64.8786Z" fill="#8DD070"/>
<path opacity="0.1" d="M79.6754 64.8786C79.6754 64.8786 79.2085 90.4788 84.3439 98.9021C89.4793 107.325 91.6802 143.969 91.6802 143.969C91.6802 143.969 145.515 148.891 183.03 138.075C220.545 127.258 300.37 122.834 300.37 122.834L286.918 42.7003C286.918 42.7003 220.462 38.9337 182.657 54.8697C144.851 70.8056 79.6754 64.8786 79.6754 64.8786Z" fill="black"/>
<path d="M91.5902 74.2304C91.5902 74.2304 89.9062 95.3536 94.1313 102.103C98.3563 108.852 98.553 138.982 98.553 138.982C98.553 138.982 147.002 140.969 181.466 130.6C215.93 120.232 288.352 113.506 288.352 113.506L280.122 47.973C280.122 47.973 220.198 47.4278 185.224 62.0227C150.25 76.6177 91.5902 74.2304 91.5902 74.2304Z" fill="#8DD070"/>
<path opacity="0.1" d="M184.692 118.602C191.585 117.843 195.681 106.634 193.839 93.5669C191.998 80.4994 184.916 70.5214 178.023 71.2803C171.129 72.0392 167.034 83.2476 168.875 96.3151C170.717 109.383 177.798 119.361 184.692 118.602Z" fill="black"/>
<path opacity="0.2" d="M250.484 3.66348C250.484 3.66348 185.921 18.1052 155.476 43.5256C125.03 68.9459 60.9381 80.9826 60.9381 80.9826C60.9381 80.9826 69.3815 105.472 77.1913 112.097C85.0011 118.723 99.8137 153.006 99.8137 153.006C99.8137 153.006 152.758 143.085 184.704 122.607C216.65 102.129 291.104 76.267 291.104 76.267L250.484 3.66348Z" fill="black"/>
<path d="M59.9674 77.3162C59.9674 77.3162 68.4075 101.808 76.2106 108.434C84.0137 115.059 98.833 149.339 98.833 149.339C98.833 149.339 151.784 139.421 183.734 118.944C215.683 98.4659 290.13 72.6123 290.13 72.6123L249.51 0C249.51 0 184.951 14.4417 154.505 39.8621C124.06 65.2824 59.9674 77.3162 59.9674 77.3162Z" fill="#8DD070"/>
<path opacity="0.1" d="M59.9674 77.3162C59.9674 77.3162 68.4075 101.808 76.2106 108.434C84.0137 115.059 98.833 149.339 98.833 149.339C98.833 149.339 151.784 139.421 183.734 118.944C215.683 98.4659 290.13 72.6123 290.13 72.6123L249.51 0C249.51 0 184.951 14.4417 154.505 39.8621C124.06 65.2824 59.9674 77.3162 59.9674 77.3162Z" fill="black"/>
<path d="M74.5433 82.9868C74.5433 82.9868 80.2756 103.55 86.6415 108.826C93.0074 114.101 103.648 142.719 103.648 142.719C103.648 142.719 150.447 131.467 179.649 112.25C208.85 93.0341 275.45 67.0184 275.45 67.0184L244.868 6.85834C244.868 6.85834 187.649 22.588 159.427 45.9659C131.206 69.3438 74.5433 82.9868 74.5433 82.9868Z" fill="#8DD070"/>
<path opacity="0.1" d="M178.569 99.9656C184.866 97.3737 184.873 85.5953 178.583 73.6577C172.294 61.7202 162.09 54.144 155.792 56.7359C149.495 59.3278 149.488 71.1062 155.778 83.0438C162.067 94.9814 172.271 102.558 178.569 99.9656Z" fill="black"/>
<path opacity="0.1" d="M213.648 86.5825V188.264C213.648 189.419 213.391 190.562 212.891 191.629C212.391 192.696 211.658 193.665 210.734 194.482C209.809 195.298 208.713 195.946 207.505 196.387C206.298 196.829 205.004 197.056 203.698 197.056H32.6291C29.9915 197.055 27.4622 196.128 25.5974 194.48C23.7327 192.831 22.6851 190.595 22.6851 188.264V76.3318C27.5871 77.941 27.5871 77.941 32.6291 77.8054H203.698C206.333 77.8054 208.861 78.7296 210.727 80.3751C212.592 82.0206 213.643 84.253 213.648 86.5825Z" fill="black"/>
<path d="M213.648 87.8763V189.558C213.647 191.89 212.599 194.126 210.733 195.775C208.867 197.423 206.336 198.35 203.698 198.35H32.6291C29.9915 198.349 27.4622 197.422 25.5974 195.773C23.7327 194.125 22.6851 191.889 22.6851 189.558V77.6227C27.5871 79.229 27.5871 79.229 32.6291 79.0964H203.698C206.334 79.0964 208.862 80.0209 210.728 81.667C212.593 83.3132 213.644 85.5464 213.648 87.8763Z" fill="#504F60"/>
<path opacity="0.1" d="M213.162 125.469V157.986H177.481C172.645 157.929 168.029 156.191 164.632 153.148C161.236 150.105 159.331 146.002 159.331 141.728C159.331 137.453 161.236 133.351 164.632 130.308C168.029 127.265 172.645 125.527 177.481 125.469H213.162Z" fill="black"/>
<path d="M213.649 124.602V157.126H177.968C173.132 157.068 168.516 155.33 165.119 152.287C161.723 149.244 159.818 145.142 159.818 140.867C159.818 136.592 161.723 132.49 165.119 129.447C168.516 126.404 173.132 124.666 177.968 124.608L213.649 124.602Z" fill="#33323D"/>
<path opacity="0.1" d="M179.679 148.069C183.64 148.069 186.852 145.23 186.852 141.729C186.852 138.228 183.64 135.39 179.679 135.39C175.717 135.39 172.506 138.228 172.506 141.729C172.506 145.23 175.717 148.069 179.679 148.069Z" fill="black"/>
<path d="M180.166 147.208C184.127 147.208 187.338 144.37 187.338 140.869C187.338 137.367 184.127 134.529 180.166 134.529C176.204 134.529 172.993 137.367 172.993 140.869C172.993 144.37 176.204 147.208 180.166 147.208Z" fill="#205878"/>
<path d="M275.583 124.322C275.867 127.037 273.543 129.672 274.22 132.33C274.366 132.899 274.643 133.435 274.743 134.01C275.023 135.59 273.959 137.084 272.942 138.405L264.205 149.734C263.856 150.232 263.437 150.689 262.958 151.096C261.291 152.41 258.783 152.275 256.589 152.667C255.046 152.943 253.59 153.512 252.321 154.335C252.268 154.375 252.234 154.431 252.226 154.493C252.219 154.554 252.238 154.616 252.281 154.665C252.643 155.101 253.124 155.45 253.678 155.681C254.233 155.911 254.844 156.014 255.455 155.982C255.685 156.25 255.455 156.642 255.122 156.834C254.652 157.129 254.008 157.199 253.915 157.901C253.881 158.146 253.937 158.394 254.075 158.608C254.427 159.085 254.974 159.422 255.602 159.548C258.627 160.365 261.895 158.93 264.159 156.975C266.423 155.021 268.047 152.555 270.268 150.565C271.498 149.466 272.896 148.523 274.163 147.456C276.691 145.328 278.655 142.74 280.552 140.149C281.122 139.368 281.696 138.567 281.936 137.662C282.176 136.757 282.063 135.843 282.333 134.968C282.686 133.819 283.637 132.905 284.427 131.941C285.978 130.055 287.011 127.747 286.808 125.425C286.605 123.102 284.974 120.806 282.493 120.016C281.724 119.744 280.876 119.698 280.075 119.887C279.058 120.164 278.308 120.907 277.614 121.617L275.947 123.312C275.531 123.683 275.203 124.124 274.98 124.608C274.873 124.852 274.848 125.117 274.907 125.372C274.966 125.628 275.107 125.863 275.313 126.05" fill="#FBBEBE"/>
<path opacity="0.05" d="M275.583 124.322C275.867 127.037 273.543 129.672 274.22 132.33C274.366 132.899 274.643 133.435 274.743 134.01C275.023 135.59 273.959 137.084 272.942 138.405L264.205 149.734C263.856 150.232 263.437 150.689 262.958 151.096C261.291 152.41 258.783 152.275 256.589 152.667C255.046 152.943 253.59 153.512 252.321 154.335C252.268 154.375 252.234 154.431 252.226 154.493C252.219 154.554 252.238 154.616 252.281 154.665C252.643 155.101 253.124 155.45 253.678 155.681C254.233 155.911 254.844 156.014 255.455 155.982C255.685 156.25 255.455 156.642 255.122 156.834C254.652 157.129 254.008 157.199 253.915 157.901C253.881 158.146 253.937 158.394 254.075 158.608C254.427 159.085 254.974 159.422 255.602 159.548C258.627 160.365 261.895 158.93 264.159 156.975C266.423 155.021 268.047 152.555 270.268 150.565C271.498 149.466 272.896 148.523 274.163 147.456C276.691 145.328 278.655 142.74 280.552 140.149C281.122 139.368 281.696 138.567 281.936 137.662C282.176 136.757 282.063 135.843 282.333 134.968C282.686 133.819 283.637 132.905 284.427 131.941C285.978 130.055 287.011 127.747 286.808 125.425C286.605 123.102 284.974 120.806 282.493 120.016C281.724 119.744 280.876 119.698 280.075 119.887C279.058 120.164 278.308 120.907 277.614 121.617L275.947 123.312C275.531 123.683 275.203 124.124 274.98 124.608C274.873 124.852 274.848 125.117 274.907 125.372C274.966 125.628 275.107 125.863 275.313 126.05" fill="black"/>
<path d="M282.196 194.203C280.289 195.231 277.911 195.293 275.694 195.054C275.337 195.016 274.913 194.993 274.693 195.237C274.36 195.591 274.753 196.121 275.16 196.395C276.468 197.263 278.005 197.822 279.625 198.019C281.072 198.201 282.532 198.286 283.994 198.276C287.995 198.338 291.997 198.397 295.935 197.89C296.168 197.874 296.395 197.816 296.602 197.719C296.856 197.561 297.032 197.324 297.095 197.056C297.366 196.148 296.845 195.175 296.058 194.545C295.271 193.914 294.261 193.563 293.274 193.224L289.806 192.031C288.992 191.751 287.688 191.008 286.805 191.067C285.144 191.173 283.573 193.489 282.196 194.203Z" fill="#3F3D56"/>
<path opacity="0.05" d="M282.196 194.203C280.289 195.231 277.911 195.293 275.694 195.054C275.337 195.016 274.913 194.993 274.693 195.237C274.36 195.591 274.753 196.121 275.16 196.395C276.468 197.263 278.005 197.822 279.625 198.019C281.072 198.201 282.532 198.286 283.994 198.276C287.995 198.338 291.997 198.397 295.935 197.89C296.168 197.874 296.395 197.816 296.602 197.719C296.856 197.561 297.032 197.324 297.095 197.056C297.366 196.148 296.845 195.175 296.058 194.545C295.271 193.914 294.261 193.563 293.274 193.224L289.806 192.031C288.992 191.751 287.688 191.008 286.805 191.067C285.144 191.173 283.573 193.489 282.196 194.203Z" fill="black"/>
<path d="M284.627 153.512C283.183 155.21 281.689 157.17 282.046 159.271C282.24 160.403 282.956 161.402 283.483 162.449C284.197 163.869 284.57 165.396 284.937 166.917C285.477 169.139 286.021 171.367 286.351 173.625C286.728 176.174 284.957 183.551 284.794 186.118C284.754 186.737 284.67 187.406 284.184 187.851C283.994 188.028 283.74 188.17 283.653 188.4C283.603 188.621 283.644 188.851 283.77 189.048C284.584 190.669 286.248 191.877 288.105 192.567C289.963 193.257 294.441 194.447 296.465 194.509C296.732 194.535 297.002 194.504 297.252 194.418C297.521 194.273 297.733 194.058 297.859 193.802C299.309 191.35 297.916 182.632 297.936 179.864C297.956 177.556 298.573 175.263 298.459 172.959C298.366 171.108 297.792 169.298 297.602 167.453C297.269 164.429 297.896 161.391 298.526 158.402C299.006 156.109 299.49 153.816 300.106 151.553C300.483 150.17 300.92 148.776 301.774 147.577C302.441 146.625 303.378 145.829 304.155 144.924C306.311 142.425 307.269 139.277 306.822 136.159C306.776 135.864 301.82 137.27 301.384 137.438C299.601 138.105 297.961 139.037 296.535 140.194C295.388 141.16 294.484 142.451 293.481 143.533C292.06 145.064 290.657 146.605 289.272 148.157C287.692 149.931 286.143 151.717 284.627 153.512Z" fill="#464353"/>
<path opacity="0.05" d="M284.627 153.409C283.183 155.107 281.689 157.07 282.046 159.168C282.24 160.303 282.956 161.302 283.483 162.348C284.197 163.766 284.57 165.296 284.937 166.814C285.477 169.039 286.021 171.267 286.351 173.522C286.728 176.074 284.957 183.448 284.794 186.015C284.754 186.634 284.67 187.306 284.184 187.751C283.994 187.925 283.74 188.066 283.653 188.296C283.602 188.518 283.644 188.748 283.77 188.945C284.584 190.569 286.248 191.774 288.105 192.482C289.963 193.189 294.441 193.805 296.465 193.864C296.732 193.89 297.002 193.858 297.252 193.772C297.522 193.629 297.734 193.415 297.859 193.159C299.31 190.707 297.916 182.549 297.936 179.779C297.956 177.468 298.573 175.178 298.459 172.87C298.366 171.019 297.792 169.21 297.602 167.368C297.269 164.341 297.896 161.302 298.526 158.314C299.006 156.024 299.49 153.731 300.107 151.464C300.483 150.082 300.92 148.688 301.774 147.488C302.441 146.536 303.378 145.74 304.155 144.836C306.312 142.337 307.27 139.188 306.823 136.07C306.776 135.776 301.821 137.182 301.384 137.35C299.602 138.019 297.962 138.952 296.535 140.108C295.388 141.072 294.484 142.363 293.481 143.445C292.06 144.975 290.657 146.518 289.272 148.072C287.692 149.832 286.143 151.611 284.627 153.409Z" fill="black"/>
<path d="M268.56 116.123C273.03 116.123 276.654 112.921 276.654 108.97C276.654 105.02 273.03 101.817 268.56 101.817C264.091 101.817 260.467 105.02 260.467 108.97C260.467 112.921 264.091 116.123 268.56 116.123Z" fill="#FBBEBE"/>
<path d="M275.85 108.669C276.598 109.724 277.578 110.634 278.732 111.346C279.887 112.058 281.192 112.557 282.569 112.813L281.959 114.773C280.905 118.139 279.721 121.699 276.78 124.034C277.114 122.893 276.687 121.676 275.96 120.686C275.233 119.695 274.213 118.917 273.212 118.148L268.554 114.582C268.42 114.485 268.307 114.367 268.221 114.234C268.106 113.983 268.106 113.701 268.221 113.45C268.814 111.817 270.508 110.797 271.889 109.695C272.581 109.125 273.2 108.488 273.733 107.797C274.663 106.624 275.24 107.803 275.85 108.669Z" fill="#FBBEBE"/>
<path d="M257.899 101.779L257.716 100.435C258.993 100.729 260.207 99.7686 261.024 98.7754C261.841 97.7822 262.598 96.6121 263.842 96.1965C265.352 95.6955 266.953 96.4912 268.397 97.1632C270.013 97.956 271.788 98.4664 273.622 98.6663C273.915 98.6749 274.205 98.7165 274.486 98.7901C275.426 99.0849 275.873 100.128 276.01 101.074C276.147 102.02 276.11 103.025 276.574 103.868C276.907 104.508 277.527 104.982 277.907 105.613C278.908 107.305 277.941 109.618 278.985 111.278L276.39 109.176C276.153 108.985 275.82 108.784 275.556 108.946C275.35 109.076 275.333 109.356 275.25 109.58C275 110.234 274.073 110.429 273.402 110.17C272.732 109.91 272.242 109.347 271.735 108.834C270.588 107.638 269.221 106.586 267.62 106.076C266.918 105.844 266.169 105.747 265.422 105.79C264.674 105.834 263.946 106.018 263.285 106.329C262.074 106.933 261.187 108.342 259.703 108.392C257.669 108.46 256.822 105.112 255.882 103.789C256.226 103.56 256.468 103.231 256.566 102.861C256.663 102.49 256.61 102.101 256.416 101.761C256.552 101.711 257.869 101.572 257.899 101.779Z" fill="#464353"/>
<path d="M157.797 59.9596C157.146 60.4708 156.545 61.0288 155.999 61.6278C155.45 62.2351 155.157 62.9929 155.172 63.7705C155.175 63.996 155.256 64.2152 155.405 64.3982C155.482 64.4859 155.587 64.5503 155.706 64.5825C155.826 64.6147 155.954 64.6132 156.072 64.578C156.206 64.5176 156.321 64.4285 156.406 64.3187C156.758 63.9443 157.132 63.5863 157.526 63.2458C157.67 63.1191 157.86 62.9865 158.053 63.0336C158.14 63.0608 158.218 63.1064 158.28 63.1663C158.504 63.3377 158.668 63.5629 158.75 63.8147C158.867 64.2656 158.57 64.7165 158.233 65.0702C157.897 65.4239 157.5 65.7628 157.363 66.2079C157.311 66.3254 157.311 66.4558 157.363 66.5733C157.427 66.6584 157.518 66.7257 157.623 66.7678C158.101 67.0002 158.63 67.137 159.174 67.1686C159.718 67.2002 160.263 67.1258 160.771 66.9506C161.438 66.7119 162.032 66.3022 162.719 66.09C163.016 66.018 163.304 65.9193 163.579 65.7952C163.775 65.6797 163.944 65.5308 164.075 65.3573C164.206 65.1838 164.297 64.9891 164.343 64.7843C164.429 64.3753 164.446 63.957 164.393 63.5435C164.309 61.9424 163.922 60.3652 163.245 58.878C163.206 58.7821 163.14 58.6967 163.052 58.6304C162.952 58.5764 162.836 58.5487 162.719 58.5508C161.865 58.4713 160.464 58.0852 159.641 58.3651C159.353 58.5047 159.104 58.7002 158.914 58.9369C158.76 59.0872 157.797 59.7622 157.797 59.9596Z" fill="#A1616A"/>
<path d="M157.527 59.2935C157.527 58.5744 156.526 56.8384 158.117 56.7235C158.117 55.9543 156.886 55.4768 157.117 54.6604C157.19 54.3892 157.45 54.1682 157.48 53.8912C157.58 53.1042 155.973 52.6769 156.239 51.9224C156.34 51.6276 156.693 51.4567 156.77 51.1649C156.95 50.4841 155.573 50.1805 155.546 49.482C155.546 49.2462 155.696 49.0252 155.683 48.7894C155.683 48.4947 155.392 48.2707 155.232 48.0143C154.816 47.357 155.019 46.3402 154.259 46.0013C154.762 46.0396 154.926 45.3794 154.719 44.9756C154.512 44.5718 154.089 44.2211 154.085 43.7731C154.11 43.6108 154.11 43.4462 154.085 43.2839C153.945 42.8536 153.148 42.8182 153.015 42.3997C152.998 42.239 152.992 42.0776 152.998 41.9163C152.945 41.5833 152.558 41.3711 152.194 41.2768C151.817 41.2201 151.453 41.1054 151.121 40.9378C150.887 40.7816 150.617 40.5223 150.367 40.6431C150.274 40.6932 150.227 40.7875 150.157 40.8582C149.857 41.1677 149.283 41.0321 148.906 40.8052C147.793 40.1362 147.239 38.9366 147.002 37.7665C146.765 36.5965 146.772 35.3881 146.475 34.2298C146.385 33.8688 146.264 33.5142 146.115 33.1688C145.989 32.8741 145.582 32.4113 145.555 32.1137C145.495 31.4358 147.082 31.8985 147.686 31.9663C148.272 32.0169 148.851 32.1155 149.417 32.261C150.02 32.4625 150.611 32.6917 151.187 32.9477C153.595 33.8879 156.503 34.0029 158.437 35.5826C159.074 36.1013 159.611 36.7822 160.438 37.0179C160.817 37.0822 161.191 37.1678 161.558 37.2744C162.475 37.6546 162.619 38.7303 163.119 39.5084C163.276 39.7139 163.413 39.9308 163.529 40.1568C163.626 40.4233 163.671 40.7023 163.663 40.982L163.733 43.0245C163.846 46.4463 163.959 49.877 163.546 53.2781C163.412 54.401 163.212 55.5564 163.589 56.6351C163.689 56.9298 163.829 57.2069 163.923 57.5045C164.005 57.8535 164.048 58.209 164.049 58.5656L164.103 59.8889C164.121 59.9918 164.095 60.0971 164.029 60.1836C163.974 60.2236 163.908 60.2521 163.839 60.2669C163.769 60.2816 163.696 60.2824 163.626 60.2691C161.542 60.104 159.434 59.0666 157.467 59.6944" fill="#464353"/>
<path d="M252.637 160.975C266.259 160.975 277.301 159.564 277.301 157.824C277.301 156.084 266.259 154.674 252.637 154.674C239.016 154.674 227.974 156.084 227.974 157.824C227.974 159.564 239.016 160.975 252.637 160.975Z" fill="#504F60"/>
<path d="M273.856 157.978C273.422 156.336 273.152 154.895 273.152 154.895C273.152 154.895 273.252 153.109 272.345 151.768V151.32V148.019C272.603 147.419 272.919 146.84 273.289 146.289C273.956 145.251 273.289 141.449 273.289 141.449C273.289 141.449 270.798 136.088 271.402 132.687C272.005 129.286 266.286 117.585 266.286 117.585C266.321 116.457 266.502 115.335 266.823 114.243C266.884 114.013 266.909 113.777 266.896 113.541C266.896 113.512 266.896 113.485 266.896 113.456C266.896 113.426 266.896 113.474 266.896 113.482C266.81 111.239 264.802 107.037 264.802 107.037L265.072 99.0259C265.072 99.0259 266.353 94.3103 264.265 87.9589C263.535 85.7455 263.068 83.9741 262.771 82.6066C262.738 82.4533 262.705 82.3119 262.678 82.1615C266.976 81.5721 270.261 81.1005 270.261 81.1005C270.261 81.1005 267.767 71.8785 266.083 70.2633C264.399 68.6482 263.052 63.5759 263.052 63.5759C263.052 63.5759 262.175 57.0654 263.592 55.1614C265.009 53.2575 265.209 49.9742 265.209 49.9742C265.209 49.9742 268.44 47.9111 268.847 46.9768C269.254 46.0425 269.924 43.9794 269.924 42.886C269.924 41.7925 269.521 40.8229 269.654 40.2334C269.788 39.644 268.71 37.4659 269.251 36.4285C269.39 36.1098 269.463 35.7711 269.464 35.4293C269.465 35.4196 269.465 35.4097 269.464 35.3999C269.469 34.492 269.374 33.5859 269.181 32.6943C268.246 31.9967 267.155 31.4814 265.979 31.1823L265.909 30.9347L265.726 30.2863C265.624 30.2265 265.518 30.1714 265.409 30.1213V29.8855L265.379 28.9483L265.886 26.8439C266.886 23.1834 261.354 22.6381 261.354 22.6381C261.019 22.0766 260.461 21.6443 259.787 21.4238C258.677 21.079 259.604 26.9294 260.12 27.3184C260.511 27.6131 261.718 29.4346 262.301 30.3364L262.395 30.4838C262.303 30.5564 262.219 30.6352 262.141 30.7196L262.351 31.9899L262.385 32.1844C262.018 32.5868 261.72 33.0347 261.501 33.5136C261.501 33.5136 262.501 34.4921 262.311 35.5767C262.121 36.6613 262.621 38.0377 262.645 38.1114C262.585 38.0495 261.874 37.3716 261.164 37.5367C260.454 37.7017 258.47 38.2293 258.47 38.2293C258.47 38.2293 256.989 38.4592 257.136 38.748C257.283 39.0368 256.136 40.3042 256.136 40.3042L252.154 36.9678C252.114 36.8676 252.071 36.7674 252.037 36.6731C251.875 36.1921 251.763 35.6987 251.704 35.1995C252.138 35.1083 252.563 34.9891 252.978 34.8428C253.396 34.7159 253.773 34.5015 254.078 34.218C254.482 33.7965 254.558 33.2248 254.722 32.7002C255.035 31.6745 255.722 30.7638 256.199 29.7882C257.006 28.1398 257.267 26.3223 256.949 24.548C256.888 24.0012 256.679 23.4755 256.339 23.0154C255.689 22.2255 254.508 21.9042 253.651 21.2735C252.794 20.6428 252.241 19.679 251.24 19.2104C250.337 18.7831 249.239 18.8332 248.219 18.9805C246.226 19.271 244.312 19.8866 242.574 20.7961C241.993 21.0908 241.353 21.4533 240.686 21.3443C240.113 21.2529 239.686 20.8491 239.326 20.4601C239.33 20.444 239.335 20.4282 239.342 20.4129C239.326 20.3986 239.311 20.3828 239.299 20.3658C238.877 21.1935 238.665 22.0928 238.679 23.0006C238.679 23.1421 238.679 23.2954 238.699 23.4221V23.5695C238.699 23.6107 238.699 23.652 238.699 23.6903C238.699 23.7531 238.688 23.8156 238.669 23.876C238.585 24.0563 238.457 24.2182 238.295 24.3505C238.173 24.4734 238.061 24.6044 237.962 24.7425C237.962 24.6953 237.995 24.6482 238.015 24.5981C237.761 24.9262 237.617 25.3116 237.602 25.7092C237.583 25.9986 237.69 26.2833 237.902 26.505C238.101 26.6763 238.319 26.8303 238.552 26.9647C238.473 27.3538 238.432 27.7483 238.432 28.1437C238.439 29.3156 238.789 30.4661 239.447 31.4837C240.104 32.5014 241.048 33.3518 242.187 33.9528C242.233 34.05 242.277 34.1502 242.32 34.2475C242.83 35.4264 243.214 36.8116 243.044 38.079C243.044 38.1703 243.014 38.2646 242.997 38.356C242.98 38.4474 242.897 38.4533 242.854 38.5034C242.854 38.5034 236.274 38.5623 234.727 37.3244C233.18 36.0866 230.819 40.3513 230.819 40.3513C230.819 40.3513 228.461 40.7551 227.988 40.3513C227.514 39.9475 224.756 40.2953 224.756 40.2953C223.627 39.4072 222.156 38.933 220.645 38.969C219.729 38.3539 218.718 37.8577 217.644 37.4954L217.57 37.4718C217.096 37.319 216.589 37.2626 216.086 37.3068C216.086 37.3068 212.852 34.9489 211.908 33.6757C210.964 32.4025 206.473 27.7016 206.453 27.6809V27.454L206.403 26.7702C206.269 26.7887 206.134 26.7986 205.999 26.7997C205.976 26.7319 205.942 26.6523 205.909 26.561C205.65 25.894 205.331 25.2465 204.955 24.6246C204.955 24.6246 204.955 23.761 205.239 23.5429C205.522 23.3248 205.122 20.1565 205.122 20.1565C205.122 20.1565 202.208 14.1352 199.597 18.6298C199.597 18.6298 194.661 21.5388 198.803 24.9282C198.803 24.9282 200.47 25.6355 200.69 26.1955C200.844 26.558 201.404 27.5748 201.781 28.2586L201.951 28.5533L201.904 28.5887L201.964 29.1546L201.991 29.3727C201.211 29.7647 200.68 30.1537 200.81 30.4455C201.04 30.9448 201.198 31.4676 201.281 32.0016C201.281 32.0016 207.009 38.3442 207.75 41.0528C207.75 41.0528 223.112 49.1224 228.164 49.6972L227.271 53.7202C227.141 54.8119 227.074 55.9087 227.071 57.0064C227.137 57.87 226.464 61.7899 226.464 61.7899C226.464 61.7899 225.587 67.5548 224.847 68.3623C224.106 69.1699 224.24 72.6271 224.24 72.6271C224.065 74.2821 223.73 75.9209 223.239 77.5255C222.499 79.7153 223.036 82.4268 223.036 82.4268C223.036 82.4268 220.478 87.614 226.607 84.0979C226.607 84.0979 229.608 83.9329 233.083 83.8268C233.083 83.927 233.083 84.0301 233.083 84.1215C233.083 84.5164 233.083 84.9438 233.06 85.3918C233.013 88.3626 232.993 92.4653 233.146 95.554C233.417 101.03 235.304 111.867 235.304 111.867V117.323C235.182 117.834 235.122 118.356 235.124 118.879C235.084 120.798 235.662 122.688 236.791 124.328L237.265 127.959C237.265 127.959 238.372 130.353 238.392 131.791C238.388 131.907 238.372 132.022 238.345 132.136C238.302 132.319 238.284 132.506 238.292 132.693C238.228 134.343 239.352 138.293 239.352 138.293C239.352 138.293 239.419 142.269 240.093 142.501C240.669 142.699 239.322 144.791 238.922 145.393C238.911 145.356 238.904 145.318 238.899 145.281L238.815 145.399C238.676 145.72 238.605 146.062 238.605 146.407C238.567 146.678 238.617 146.953 238.75 147.201C238.882 147.448 239.091 147.657 239.352 147.804C240.633 148.496 241.32 149.071 240.233 149.301C239.833 149.356 239.436 149.429 239.045 149.522C239.045 149.478 239.005 149.43 238.989 149.389C238.835 149.442 238.707 149.54 238.627 149.667C238.546 149.794 238.517 149.941 238.545 150.085C238.556 150.552 238.692 151.011 238.942 151.423C240.019 153.557 240.766 154.37 240.766 154.37L241.283 154.32C241.207 154.495 241.106 154.66 240.983 154.812C240.786 155.059 240.525 155.261 240.223 155.402C239.94 155.551 239.626 155.646 239.299 155.682C238.934 155.692 238.575 155.771 238.246 155.912C237.918 156.053 237.626 156.254 237.391 156.501C236.725 157.27 236.298 158.317 237.625 159.236L242.443 160.71C242.443 160.71 250.733 161.662 250.293 160.017C249.853 158.372 249.586 156.934 249.586 156.934C249.622 155.93 249.394 154.932 248.919 154.019C248.832 153.87 248.734 153.727 248.626 153.589L248.919 153.563C248.919 153.563 249.526 149.929 250.333 149.239C250.52 149.08 250.563 148.944 250.52 148.862C250.603 148.664 250.39 148.549 250.12 148.481L250.06 148.626C249.796 148.575 249.526 148.548 249.256 148.546C249.256 148.546 248.986 146.645 249.863 145.953C249.934 145.874 249.985 145.783 250.015 145.685C250.044 145.588 250.05 145.486 250.033 145.387C250.04 145.126 250.008 144.865 249.94 144.612C249.931 144.628 249.921 144.644 249.91 144.659C249.47 142.932 247.976 140.188 247.976 140.188C247.976 140.188 247.909 138.461 248.449 137.768C248.989 137.075 248.379 128.372 248.379 128.372C248.379 128.372 248.583 124.166 247.976 122.206C247.369 120.246 248.716 117.939 248.716 117.939C248.716 117.939 248.716 117.894 248.716 117.815V117.785L248.639 117.122C248.637 117.136 248.637 117.15 248.639 117.164C248.503 116.049 248.246 114.031 248.056 113.099C247.786 111.773 248.126 105.436 248.126 105.436L249.336 102.725L251.494 107.396L253.785 113.621C253.785 113.621 254.918 114.935 254.945 116.273C254.945 116.338 254.945 116.403 254.945 116.468C254.927 116.606 254.918 116.745 254.918 116.884C254.878 117.67 255.122 118.447 255.615 119.103C255.615 119.103 256.222 122.05 257.166 122.79C258.11 123.53 258.11 124.98 258.11 124.98C258.11 124.98 259.253 129.247 259.777 129.99C260.23 130.621 260.254 132.348 260.25 132.887C260.25 132.985 260.25 133.041 260.25 133.041C260.25 133.041 260.411 134.567 260.404 135.846C260.404 136.006 260.404 136.159 260.404 136.303C260.405 136.292 260.405 136.282 260.404 136.271C260.404 136.62 260.357 136.969 260.264 137.308L260.244 137.367C260.244 137.294 260.244 137.223 260.267 137.152C260.033 138.021 259.921 138.912 259.934 139.805C259.904 141.337 260.167 143.153 261.218 144.226C263.038 146.071 264.182 145.841 264.182 145.841C264.182 145.841 263.308 148.145 262.228 148.608C262.187 148.625 262.149 148.647 262.115 148.673C262.115 148.626 262.095 148.582 262.088 148.537C261.967 148.652 261.876 148.788 261.818 148.937C261.761 149.085 261.739 149.242 261.754 149.398C261.678 150.412 262.401 152.051 263.088 152.814C263.343 153.035 263.656 153.197 263.999 153.285C263.944 153.319 263.888 153.35 263.829 153.377C263.709 153.435 263.585 153.487 263.458 153.533C263.283 153.599 263.098 153.642 262.908 153.66C262.543 153.668 262.183 153.746 261.854 153.887C261.525 154.029 261.234 154.23 261.001 154.479C260.334 155.245 259.907 156.292 261.234 157.211L266.053 158.685C266.053 158.685 274.289 159.619 273.856 157.978Z" fill="url(#paint0_linear)"/>
<path d="M242.207 160.701L237.538 159.227C236.251 158.308 236.661 157.261 237.312 156.492C237.535 156.247 237.816 156.047 238.135 155.905C238.454 155.764 238.803 155.685 239.159 155.673C239.475 155.637 239.779 155.542 240.049 155.393C240.345 155.251 240.599 155.049 240.79 154.803C241.13 154.326 241.314 153.774 241.32 153.209C241.32 153.209 246.442 151.883 247.843 153.209C248.093 153.449 248.302 153.72 248.463 154.013C248.928 154.929 249.156 155.925 249.13 156.928C249.13 156.928 249.39 158.367 249.814 160.011C250.237 161.656 242.207 160.701 242.207 160.701Z" fill="#2D293D"/>
<path d="M265.03 158.667L260.361 157.194C259.074 156.274 259.484 155.228 260.134 154.461C260.356 154.215 260.636 154.014 260.955 153.873C261.273 153.731 261.622 153.653 261.978 153.642C262.163 153.625 262.343 153.583 262.512 153.515C262.635 153.469 262.756 153.417 262.872 153.359C264.176 152.725 264.143 151.169 264.143 151.169C264.143 151.169 269.261 149.843 270.665 151.169C270.853 151.349 271.018 151.547 271.156 151.759C272.033 153.1 271.936 154.889 271.936 154.889C271.936 154.889 272.196 156.33 272.603 157.972C273.01 159.613 265.03 158.667 265.03 158.667Z" fill="#2D293D"/>
<path opacity="0.1" d="M247.845 153.206C248.095 153.446 248.304 153.717 248.466 154.011L240.796 154.797C241.137 154.32 241.32 153.768 241.326 153.203C241.326 153.203 246.445 151.88 247.845 153.206Z" fill="black"/>
<path opacity="0.1" d="M271.162 151.765V153.035C269.968 154.771 264.196 154.391 262.519 153.521C262.642 153.475 262.762 153.423 262.879 153.365C264.183 152.731 264.149 151.175 264.149 151.175C264.149 151.175 269.268 149.849 270.672 151.175C270.86 151.355 271.024 151.553 271.162 151.765Z" fill="black"/>
<path d="M272.073 146.289C271.716 146.842 271.411 147.421 271.162 148.019V152.572C269.855 154.473 263.076 153.84 262.159 152.802C261.242 151.765 260.285 149.065 261.315 148.596C262.345 148.128 263.206 145.829 263.206 145.829C263.206 145.829 262.095 146.059 260.335 144.214C258.574 142.369 259.097 138.278 259.424 137.299C259.751 136.321 259.424 133.035 259.424 133.035C259.424 133.035 259.491 130.727 258.971 129.978C258.45 129.23 257.34 124.968 257.34 124.968C257.34 124.968 257.34 123.527 256.426 122.778C255.513 122.03 254.926 119.088 254.926 119.088C254.391 118.353 254.162 117.477 254.275 116.609C254.469 115.168 253.165 113.612 253.165 113.612L250.947 107.384L248.86 102.716L247.686 105.425C247.686 105.425 247.353 111.764 247.623 113.087C247.893 114.411 248.29 117.93 248.29 117.93C248.29 117.93 246.986 120.235 247.573 122.195C248.16 124.155 247.946 128.366 247.946 128.366C247.946 128.366 248.533 137.067 248.01 137.759C247.486 138.452 247.553 140.182 247.553 140.182C247.553 140.182 250.22 145.251 249.38 145.944C248.54 146.636 248.793 148.537 248.793 148.537C248.793 148.537 250.617 148.537 249.837 149.23C249.057 149.923 248.466 153.554 248.466 153.554L240.58 154.37C240.58 154.37 239.86 153.566 238.816 151.423C237.772 149.28 239.009 149.522 240.06 149.289C241.11 149.056 240.447 148.484 239.206 147.792C237.966 147.099 238.686 145.543 238.686 145.543C238.686 145.543 240.577 142.72 239.923 142.49C239.269 142.26 239.206 138.281 239.206 138.281C239.206 138.281 237.902 133.565 238.229 132.286C238.556 131.007 237.185 127.965 237.185 127.965L236.728 124.334C235.333 122.274 234.824 119.838 235.294 117.473V111.873C235.294 111.873 233.467 101.039 233.207 95.5629C233.04 92.0556 233.087 87.2692 233.14 84.2836C233.174 82.6096 233.207 81.4984 233.207 81.4984L261.378 78.9048C261.378 78.9048 261.352 80.0543 261.888 82.6037C262.179 83.9712 262.629 85.7425 263.336 87.9559C265.357 94.2956 264.119 99.0201 264.119 99.0201L263.856 107.034C263.856 107.034 266.334 112.392 265.813 114.237C265.499 115.332 265.322 116.455 265.287 117.585C265.287 117.585 270.829 129.286 270.242 132.687C269.655 136.088 272.066 141.449 272.066 141.449C272.066 141.449 272.726 145.251 272.073 146.289Z" fill="#464353"/>
<path opacity="0.05" d="M255.966 116.262L264.542 115.251C264.542 115.251 259.684 119.633 255.966 116.262Z" fill="black"/>
<path opacity="0.1" d="M263.302 107.844C263.302 107.844 263.595 110.526 261.738 111.534C261.738 111.534 265.062 111.074 263.302 107.844Z" fill="black"/>
<path opacity="0.1" d="M262.776 99.3148C262.776 99.3148 255.606 104.531 252.998 104.098C250.39 103.665 262.776 99.3148 262.776 99.3148Z" fill="black"/>
<path opacity="0.1" d="M245.335 118.708C245.335 118.708 239.889 119.801 239.726 121.735C239.563 123.668 245.335 118.708 245.335 118.708Z" fill="black"/>
<path opacity="0.05" d="M246.531 142.746C246.531 142.746 238.839 144.013 241.023 144.877C243.207 145.74 246.795 146.433 246.795 146.433C246.795 146.433 249.279 146.548 246.531 142.746Z" fill="black"/>
<g opacity="0.05">
<path opacity="0.05" d="M239.469 146.25C239.276 146.143 239.112 146 238.99 145.829C238.868 145.659 238.791 145.466 238.765 145.266L238.685 145.387C238.685 145.387 237.968 146.943 239.209 147.633C239.349 147.712 239.486 147.792 239.609 147.868C239.839 147.83 240.086 147.801 240.323 147.748C241.373 147.518 240.71 146.943 239.469 146.25Z" fill="black"/>
<path opacity="0.05" d="M249.379 145.788C249.592 145.617 249.586 145.175 249.456 144.609C249.123 145.054 249.026 145.749 249.02 146.277C249.1 146.094 249.223 145.927 249.379 145.788Z" fill="black"/>
<path opacity="0.05" d="M248.196 117.113C247.912 117.795 247.737 118.508 247.675 119.232C247.824 118.732 248.024 118.245 248.272 117.777L248.196 117.113Z" fill="black"/>
<path opacity="0.05" d="M265.816 114.089C265.867 113.882 265.891 113.671 265.886 113.459C265.789 113.889 265.723 114.287 265.673 114.638C265.716 114.458 265.763 114.287 265.816 114.089Z" fill="black"/>
<path opacity="0.05" d="M248.013 137.606C248.119 137.464 248.179 136.987 248.206 136.324C247.965 136.837 247.837 137.386 247.829 137.942C247.875 137.824 247.936 137.711 248.013 137.606Z" fill="black"/>
<path opacity="0.05" d="M249.613 148.475C249.209 149.632 248.909 150.814 248.716 152.012L240.83 152.817C240.83 152.817 240.109 152.012 239.066 149.87C238.982 149.704 238.907 149.535 238.842 149.363C238.369 149.554 238.175 149.987 238.802 151.252C239.846 153.386 240.57 154.199 240.57 154.199L248.456 153.392C248.456 153.392 249.043 149.761 249.824 149.068C250.224 148.735 249.977 148.561 249.613 148.475Z" fill="black"/>
<path opacity="0.05" d="M239.209 138.125C239.209 138.125 239.272 142.101 239.926 142.33C240.259 141.673 240.476 141.048 240.183 140.945C239.516 140.715 239.466 136.736 239.466 136.736C239.466 136.736 238.162 132.021 238.489 130.742C238.815 129.463 237.445 126.421 237.445 126.421L236.988 122.79C235.593 120.729 235.084 118.294 235.554 115.929V110.329C235.554 110.329 233.727 99.4945 233.467 94.0185C233.3 90.5112 233.347 85.7248 233.4 82.7392C233.4 82.1998 233.42 81.7224 233.43 81.3186L233.206 81.3392C233.206 81.3392 233.17 82.4474 233.14 84.1244C233.086 87.11 233.036 91.8964 233.206 95.4007C233.467 100.877 235.291 111.714 235.291 111.714V117.314C234.823 119.678 235.333 122.113 236.728 124.172L237.181 127.803C237.181 127.803 238.552 130.857 238.225 132.127C237.898 133.397 239.209 138.125 239.209 138.125Z" fill="black"/>
<path opacity="0.05" d="M262.425 151.264C261.784 150.444 261.357 149.509 261.174 148.526C260.371 149.168 261.294 151.661 262.175 152.652C263.085 153.689 269.868 154.323 271.179 152.419V151.323C269.401 152.864 263.285 152.245 262.425 151.264Z" fill="black"/>
<path opacity="0.05" d="M272.335 144.75C271.978 145.304 271.672 145.882 271.422 146.48V147.297C271.572 147.002 271.782 146.607 272.089 146.141C272.295 145.687 272.393 145.201 272.375 144.712C272.375 144.712 272.345 144.738 272.335 144.75Z" fill="black"/>
<path opacity="0.05" d="M262.825 145.661C263.073 145.217 263.288 144.759 263.469 144.29C263.469 144.29 262.359 144.52 260.598 142.675C259.317 141.334 259.244 138.8 259.427 137.143C259.094 138.125 258.577 142.215 260.338 144.06C261.488 145.266 262.359 145.584 262.825 145.661Z" fill="black"/>
<path opacity="0.05" d="M259.423 132.878C259.538 134.014 259.582 135.154 259.553 136.294C259.586 136.114 259.63 135.936 259.687 135.761C260.02 134.779 259.687 131.496 259.687 131.496C259.687 131.496 259.753 129.188 259.23 128.44C258.706 127.691 257.616 123.424 257.616 123.424C257.616 123.424 257.616 121.982 256.702 121.234C255.788 120.485 255.201 117.544 255.201 117.544C254.662 116.81 254.427 115.935 254.535 115.065C254.731 113.624 253.427 112.068 253.427 112.068L251.21 105.843L249.122 101.174L247.945 103.886C247.945 103.886 247.945 104.228 247.905 104.77L248.859 102.569L250.946 107.228L253.164 113.453C253.164 113.453 254.468 115.009 254.271 116.45C254.163 117.32 254.399 118.195 254.938 118.929C254.938 118.929 255.525 121.876 256.439 122.619C257.352 123.362 257.349 124.809 257.349 124.809C257.349 124.809 258.459 129.074 258.98 129.819C259.5 130.565 259.423 132.878 259.423 132.878Z" fill="black"/>
</g>
<path d="M264.9 26.8351L264.41 28.9394L264.44 29.8767L264.46 30.5663L261.739 30.8139L261.435 30.3158C260.871 29.4139 259.701 27.5807 259.324 27.2978C258.821 26.9264 257.924 21.0731 258.991 21.4209C259.648 21.6451 260.187 22.0768 260.505 22.6322C260.505 22.6322 265.864 23.1745 264.9 26.8351Z" fill="#FFCDD3"/>
<path opacity="0.1" d="M264.459 30.5663L261.738 30.8139L261.434 30.3158C261.8 29.9475 262.3 29.7028 262.847 29.6232C263.394 29.5437 263.956 29.6343 264.436 29.8796L264.459 30.5663Z" fill="black"/>
<path d="M265.146 31.7069L261.558 32.4408L261.482 31.9692L261.278 30.699C261.278 30.699 262.699 29.0249 264.753 30.2804L264.933 30.9259L265.146 31.7069Z" fill="#6C63FF"/>
<path d="M207.023 27.0649L203.191 28.8805L202.858 28.2439C202.494 27.5689 201.951 26.5521 201.801 26.1807C201.574 25.6208 199.977 24.9134 199.977 24.9134C195.975 21.527 200.744 18.6151 200.744 18.6151C203.271 14.1205 206.079 20.1418 206.079 20.1418C206.079 20.1418 206.473 23.316 206.196 23.5282C205.919 23.7404 205.919 24.6098 205.919 24.6098C206.284 25.2328 206.593 25.8802 206.843 26.5462C206.96 26.8675 207.023 27.0649 207.023 27.0649Z" fill="#FFCDD3"/>
<path opacity="0.1" d="M207.023 27.0649L203.192 28.8804L202.858 28.2438C203.398 27.843 205.316 26.4755 205.946 26.5315C206.247 26.5646 206.551 26.5716 206.853 26.5521C206.96 26.8674 207.023 27.0649 207.023 27.0649Z" fill="black"/>
<path d="M207.413 28.0876L203.108 29.9621L203.022 29.1457L202.962 28.5798C202.962 28.5798 205.456 26.6906 206.193 26.7643C206.565 26.812 206.944 26.812 207.317 26.7643L207.367 27.4481L207.413 28.0876Z" fill="#6C63FF"/>
<path d="M254.466 40.814C254.466 40.814 235.698 42.6856 239.206 41.6776C241.647 40.9732 242.617 39.6145 242.821 38.0819C242.988 36.8057 242.614 35.4293 242.124 34.2504C241.683 33.2046 241.124 32.2004 240.456 31.253C240.456 31.253 254.796 24.2797 251.931 30.6194C251.49 31.5783 251.215 32.5909 251.118 33.6227C251.032 34.648 251.157 35.6786 251.488 36.6643C252.029 38.2636 253.059 39.6998 254.466 40.814Z" fill="#FFCDD3"/>
<path opacity="0.1" d="M251.92 30.6105C251.478 31.5694 251.204 32.5821 251.106 33.6138C249.756 34.6188 248.275 34.551 246.371 34.551C244.911 34.551 243.29 34.8635 242.123 34.2416C241.682 33.1957 241.123 32.1916 240.456 31.2442C240.456 31.2442 254.791 24.2709 251.92 30.6105Z" fill="black"/>
<path d="M246.119 34.9931C250.405 34.9931 253.879 31.9226 253.879 28.1348C253.879 24.347 250.405 21.2765 246.119 21.2765C241.833 21.2765 238.359 24.347 238.359 28.1348C238.359 31.9226 241.833 34.9931 246.119 34.9931Z" fill="#FFCDD3"/>
<path opacity="0.1" d="M254.466 40.814C254.466 40.814 235.698 42.6856 239.206 41.6776C241.647 40.9732 242.617 39.6145 242.821 38.0819C243.755 37.1977 245.632 36.5405 246.823 36.1986C247.923 35.8715 249.112 35.854 250.224 36.1485C250.661 36.265 251.078 36.4356 251.461 36.6554C252.008 38.2607 253.048 39.7003 254.466 40.814Z" fill="black"/>
<path opacity="0.1" d="M265.146 31.7069L261.558 32.4408L261.481 31.9692C261.866 31.5028 262.403 31.1524 263.021 30.9657C263.638 30.779 264.306 30.7651 264.933 30.9259L265.146 31.7069Z" fill="black"/>
<path opacity="0.1" d="M207.413 28.0877L203.108 29.9621L203.021 29.1457C204.416 28.4831 205.865 27.9146 207.356 27.4452L207.413 28.0877Z" fill="black"/>
<path opacity="0.1" d="M261.888 82.6095C254.615 83.6352 244.277 84.9438 242.637 84.5017C241.273 84.1362 236.924 84.1745 233.14 84.2895C233.173 82.6154 233.206 81.5043 233.206 81.5043L261.378 78.9107C261.378 78.9107 261.351 80.0601 261.888 82.6095Z" fill="black"/>
<path d="M269.137 81.1005C269.137 81.1005 245.204 84.7315 242.637 84.0478C240.069 83.364 226.88 84.1038 226.88 84.1038C220.945 87.6199 223.422 82.4327 223.422 82.4327C223.422 82.4327 222.902 79.7241 223.619 77.5343C224.101 75.9265 224.43 74.2861 224.603 72.63C224.603 72.63 224.473 69.1699 225.19 68.3623C225.907 67.5547 226.757 61.7928 226.757 61.7928C226.757 61.7928 227.407 57.8729 227.344 57.0094C227.281 56.1458 227.537 53.7231 227.537 53.7231L228.388 49.6883C223.496 49.1136 208.626 41.0439 208.626 41.0439C207.909 38.3353 202.367 31.9957 202.367 31.9957C202.286 31.4626 202.133 30.9401 201.91 30.4396C201.52 29.5171 207.389 27.6721 207.389 27.6721C207.389 27.6721 211.758 32.3877 212.671 33.6668C213.585 34.946 216.713 37.2979 216.713 37.2979C217.199 37.2537 217.69 37.3102 218.147 37.4629L218.224 37.4836C219.272 37.8473 220.255 38.3437 221.141 38.9572C222.612 38.9264 224.038 39.402 225.12 40.2835C225.12 40.2835 227.787 39.9357 228.251 40.3395C228.714 40.7433 230.989 40.3395 230.989 40.3395C230.989 40.3395 233.27 36.0748 234.77 37.3126C236.271 38.5505 242.637 38.4916 242.637 38.4916C243.484 37.4954 245.548 36.7821 246.838 36.4285C247.939 36.1027 249.127 36.0852 250.24 36.3783C250.72 36.5049 251.171 36.7044 251.574 36.9678L255.445 40.31C255.445 40.31 256.552 39.0397 256.422 38.7539C256.292 38.468 257.726 38.2351 257.726 38.2351C257.726 38.2351 259.617 37.7164 260.334 37.5425C261.051 37.3686 261.708 38.0554 261.768 38.1172C261.744 38.0436 261.254 36.6436 261.434 35.5826C261.614 34.5216 260.651 33.5195 260.651 33.5195C262.931 28.5621 268.084 32.7119 268.084 32.7119C268.084 32.7119 268.67 35.4205 268.15 36.4579C267.63 37.4954 268.67 39.6852 268.54 40.2629C268.41 40.8405 268.804 41.819 268.804 42.9154C268.804 44.0118 268.137 46.0838 267.76 47.0063C267.383 47.9288 264.239 50.0037 264.239 50.0037C264.239 50.0037 264.042 53.2899 262.671 55.1909C261.301 57.0919 262.161 63.5936 262.161 63.5936C262.161 63.5936 263.465 68.6659 265.096 70.281C266.726 71.8961 269.137 81.1005 269.137 81.1005Z" fill="#3F3D56"/>
<path opacity="0.1" d="M234.25 43.1748C234.25 43.1748 233.533 41.2738 232.879 41.1117C232.231 40.9008 231.599 40.6506 230.989 40.3631L231.409 39.6528C231.409 39.6528 233.856 40.2423 234.25 40.8818C234.643 41.5214 234.25 43.1748 234.25 43.1748Z" fill="black"/>
<path opacity="0.1" d="M221.142 38.969C221.012 39.5585 215.206 40.0625 215.206 40.0625L218.141 37.463L218.214 37.4866C219.267 37.8522 220.253 38.3517 221.142 38.969Z" fill="black"/>
<path d="M204.348 31.5183C204.636 31.5183 204.868 31.3124 204.868 31.0585C204.868 30.8046 204.636 30.5987 204.348 30.5987C204.061 30.5987 203.828 30.8046 203.828 31.0585C203.828 31.3124 204.061 31.5183 204.348 31.5183Z" fill="#575988"/>
<path d="M205.015 32.4408C205.303 32.4408 205.536 32.2349 205.536 31.981C205.536 31.7271 205.303 31.5212 205.015 31.5212C204.728 31.5212 204.494 31.7271 204.494 31.981C204.494 32.2349 204.728 32.4408 205.015 32.4408Z" fill="#575988"/>
<path d="M205.669 33.2926C205.957 33.2926 206.189 33.0867 206.189 32.8328C206.189 32.5789 205.957 32.373 205.669 32.373C205.382 32.373 205.149 32.5789 205.149 32.8328C205.149 33.0867 205.382 33.2926 205.669 33.2926Z" fill="#575988"/>
<path d="M206.353 34.2121C206.64 34.2121 206.873 34.0062 206.873 33.7523C206.873 33.4984 206.64 33.2925 206.353 33.2925C206.066 33.2925 205.833 33.4984 205.833 33.7523C205.833 34.0062 206.066 34.2121 206.353 34.2121Z" fill="#575988"/>
<path d="M267.824 34.0765C268.058 34.0765 268.247 33.9089 268.247 33.7022C268.247 33.4955 268.058 33.3279 267.824 33.3279C267.59 33.3279 267.401 33.4955 267.401 33.7022C267.401 33.9089 267.59 34.0765 267.824 34.0765Z" fill="#575988"/>
<path d="M267.891 34.9283C268.125 34.9283 268.314 34.7607 268.314 34.554C268.314 34.3473 268.125 34.1797 267.891 34.1797C267.657 34.1797 267.467 34.3473 267.467 34.554C267.467 34.7607 267.657 34.9283 267.891 34.9283Z" fill="#575988"/>
<path d="M267.947 35.7771C268.181 35.7771 268.371 35.6096 268.371 35.4028C268.371 35.1961 268.181 35.0285 267.947 35.0285C267.713 35.0285 267.524 35.1961 267.524 35.4028C267.524 35.6096 267.713 35.7771 267.947 35.7771Z" fill="#575988"/>
<path opacity="0.1" d="M234.274 58.7954C234.21 58.7276 248.913 75.1352 260.324 65.6538C260.334 65.6567 242.304 67.8171 234.274 58.7954Z" fill="black"/>
<path opacity="0.1" d="M225.837 67.3249C225.837 67.3249 234.634 67.5371 235.554 69.7741V72.1024C235.304 72.2253 235.022 72.2897 234.736 72.2897C234.449 72.2897 234.168 72.2253 233.917 72.1024C233.03 71.678 227.711 69.2907 225.837 70.4402V67.3249Z" fill="black"/>
<path d="M226 67.3249C226 67.3249 234.414 67.5283 235.294 69.6621V71.8784C235.054 71.9961 234.785 72.0579 234.51 72.0579C234.236 72.0579 233.966 71.9961 233.727 71.8784C232.88 71.4776 227.794 69.1994 226 70.2958V67.3249Z" fill="#3F3D56"/>
<path opacity="0.1" d="M230.639 50.4428C231.537 52.2815 232.683 54.0181 234.05 55.6153C235.537 57.3808 237.339 58.9207 239.385 60.1748C239.385 60.1748 230.785 51.5098 230.639 50.4428Z" fill="black"/>
<path opacity="0.1" d="M227.761 41.4094C227.761 41.4094 229.229 47.0092 233.01 48.9102L227.761 41.4094Z" fill="black"/>
<path opacity="0.1" d="M225.51 41.9752C225.473 41.8721 224.206 46.3962 230.386 48.9102C230.386 48.9102 227.761 48.1233 225.51 41.9752Z" fill="black"/>
<path opacity="0.1" d="M263.922 38.2204C263.826 38.2204 266.97 39.9888 267.827 40.814C267.827 40.814 265.78 38.1025 263.922 38.2204Z" fill="black"/>
<path d="M244.021 34.3506C244.022 34.5003 244.059 34.648 244.128 34.7846C244.197 34.9212 244.297 35.0437 244.422 35.1442C244.548 35.2448 244.695 35.3212 244.856 35.3688C245.016 35.4164 245.186 35.434 245.355 35.4205C247.719 35.5502 250.184 35.6416 252.358 34.831C252.766 34.7024 253.132 34.4879 253.425 34.2062C253.812 33.7848 253.888 33.213 254.045 32.6884C254.352 31.6627 255.005 30.752 255.476 29.7764C256.271 28.1283 256.538 26.3183 256.246 24.545C256.184 24.0015 255.981 23.4779 255.652 23.0154C255.025 22.2225 253.882 21.9013 253.051 21.2706C252.221 20.6399 251.688 19.6761 250.717 19.2075C249.843 18.7772 248.773 18.8302 247.789 18.9776C245.854 19.268 244 19.8833 242.327 20.7902C241.764 21.0849 241.147 21.4474 240.5 21.3384C239.933 21.244 239.519 20.8226 239.166 20.4276C238.711 21.3708 238.52 22.3969 238.609 23.4191C238.634 23.5692 238.628 23.7218 238.592 23.8701C238.511 24.0493 238.387 24.2111 238.229 24.3446C237.645 24.9341 237.282 25.8919 237.859 26.4991C238.109 26.7614 238.496 26.9058 238.739 27.174C239.176 27.6544 239.029 28.3529 239.019 28.9659C238.995 29.18 239.056 29.3948 239.193 29.5731C239.319 29.677 239.473 29.7504 239.641 29.786C239.808 29.8216 239.984 29.8183 240.15 29.7764C240.48 29.6885 240.827 29.6594 241.17 29.691C241.532 29.7949 241.844 30.0023 242.057 30.2804C243.134 31.5212 243.561 32.8711 244.021 34.3506Z" fill="#2D293D"/>
<g opacity="0.1">
<path opacity="0.1" d="M253.701 33.6846C253.408 33.9663 253.042 34.1808 252.634 34.3094C250.447 35.114 247.986 35.0226 245.632 34.8989C245.379 34.9011 245.129 34.8517 244.901 34.7544C244.541 34.5688 244.405 34.1797 244.294 33.8261C243.834 32.3524 243.411 30.9996 242.317 29.7706C242.106 29.4871 241.794 29.2743 241.43 29.1664C241.087 29.1378 240.741 29.1668 240.41 29.2519C240.244 29.2941 240.069 29.2979 239.901 29.2628C239.734 29.2277 239.579 29.1549 239.453 29.0514C239.316 28.8731 239.255 28.6584 239.279 28.4443C239.279 27.8254 239.436 27.1328 238.999 26.6524C238.756 26.3842 238.369 26.2397 238.119 25.9745C237.956 25.7789 237.855 25.5479 237.829 25.3061C237.803 25.0642 237.851 24.8206 237.969 24.601C237.552 25.1905 237.375 25.9303 237.859 26.4372C238.109 26.6995 238.496 26.8439 238.739 27.1121C239.176 27.5955 239.029 28.291 239.019 28.9041C238.993 29.1178 239.054 29.3327 239.189 29.5112C239.316 29.6157 239.471 29.6893 239.639 29.7249C239.807 29.7606 239.983 29.757 240.149 29.7146C240.48 29.6266 240.827 29.5976 241.17 29.6291C241.531 29.733 241.844 29.9404 242.057 30.2186C243.147 31.4476 243.574 32.7974 244.034 34.277C244.088 34.6411 244.294 34.9742 244.611 35.2113C244.84 35.3086 245.091 35.3571 245.345 35.3527C247.709 35.4824 250.173 35.5767 252.348 34.7633C252.756 34.6355 253.122 34.4209 253.415 34.1385C253.562 33.9724 253.675 33.7849 253.748 33.5844C253.752 33.6227 253.728 33.6551 253.701 33.6846Z" fill="black"/>
<path opacity="0.1" d="M238.609 23.6903C238.714 23.5898 238.794 23.4715 238.846 23.3425C238.876 23.1934 238.876 23.0407 238.846 22.8916C238.781 22.0513 238.904 21.208 239.209 20.41L239.166 20.3658C238.71 21.3075 238.518 22.333 238.609 23.3543C238.619 23.4662 238.619 23.5785 238.609 23.6903Z" fill="black"/>
</g>
<path opacity="0.1" d="M242.637 38.5063C242.637 38.5063 252.331 39.6439 253.202 38.356L242.637 38.5063Z" fill="black"/>
<path opacity="0.1" d="M261.481 34.9607C261.481 34.9607 266.87 34.9607 268.054 36.7527L261.481 34.9607Z" fill="black"/>
<path d="M291.63 194.158C290.032 195.421 287.955 196.107 285.811 196.08C285.264 196.08 284.507 196.171 284.504 196.655C284.517 196.797 284.572 196.933 284.664 197.05C285.341 198.047 286.409 198.788 287.665 199.134C288.832 199.446 290.079 199.393 291.297 199.337L294.848 199.175C295.515 199.142 296.182 199.113 296.849 199.039C297.516 198.966 298.243 198.845 298.94 198.744C300.652 198.529 302.384 198.458 304.112 198.532C304.572 198.547 305.112 198.532 305.385 198.238C305.659 197.943 305.519 197.38 305.415 196.938C305.202 196.027 305.415 195.072 305.219 194.158C304.885 192.555 303.315 191.326 301.594 190.746C299.993 190.209 297.159 189.593 295.645 190.489C294.048 191.429 293.071 193 291.63 194.158Z" fill="#3F3D56"/>
<path d="M295.158 140.441C295.472 141.759 296.915 142.767 296.955 144.111C296.992 145.189 296.122 146.094 295.495 147.017C294.904 147.972 294.405 148.97 294.004 149.999C292.824 152.68 291.359 155.255 289.629 157.692C288.796 158.871 287.862 160.129 288.052 161.5C288.185 162.14 288.441 162.757 288.809 163.321L291.31 167.712C291.858 168.589 292.286 169.52 292.587 170.486C292.804 171.32 292.824 172.184 292.951 173.032C293.344 175.726 294.775 178.438 293.928 181.049C293.854 181.273 293.594 181.544 293.391 181.388C294.218 182.752 294.881 184.126 294.818 185.673C294.785 186.484 294.504 187.33 294.841 188.084C294.985 188.4 295.235 188.694 295.231 189.033C295.231 189.257 295.115 189.466 295.088 189.685C295.018 190.306 295.665 190.825 296.335 191.023C297.005 191.22 297.736 191.205 298.413 191.385C299.713 191.73 300.643 192.72 301.747 193.407C302.88 194.096 304.214 194.48 305.589 194.512C305.785 194.531 305.983 194.496 306.156 194.412C306.254 194.336 306.332 194.243 306.386 194.138C306.44 194.034 306.469 193.92 306.469 193.805C306.529 193.254 306.436 192.699 306.196 192.188C305.957 191.677 305.578 191.227 305.095 190.875C304.883 190.758 304.708 190.596 304.585 190.404C304.523 190.234 304.507 190.053 304.538 189.876C304.74 187.46 304.691 185.034 304.392 182.626C304.257 181.863 304.213 181.089 304.262 180.318C304.332 179.676 304.552 179.039 304.472 178.399C304.392 177.76 304.021 177.176 303.805 176.56C303.418 175.464 303.525 174.285 303.471 173.138C303.405 171.146 302.888 169.189 302.374 167.244C302.171 166.481 301.947 165.682 301.337 165.116C300.817 164.636 299.977 164.176 300.173 163.536C300.282 163.3 300.445 163.087 300.65 162.908C300.892 162.641 301.069 162.332 301.171 162.002C301.273 161.671 301.298 161.326 301.244 160.987C301.463 161.036 301.695 161.017 301.9 160.932C302.105 160.847 302.27 160.702 302.367 160.521C306.429 158.826 309.704 155.437 311.164 151.679C311.25 151.4 311.383 151.134 311.558 150.889C311.934 150.424 312.588 150.223 313.168 149.967C314.989 149.156 316.246 147.639 317.4 146.153C318.067 145.292 318.734 144.402 319.034 143.389C319.192 142.733 319.267 142.064 319.257 141.393L319.361 137.93C319.383 137.702 319.358 137.472 319.287 137.252C319.188 137.047 319.044 136.86 318.864 136.704C317.755 135.667 316.298 134.973 314.709 134.724C313.642 134.556 312.551 134.588 311.471 134.508C309.377 134.355 307.309 133.78 305.215 133.919C301.924 134.134 298.993 136.15 297.442 138.726C296.899 139.634 296.325 140.424 295.158 140.441Z" fill="#464353"/>
<path d="M276.884 117.924C276.928 118.459 276.847 118.996 276.644 119.501C276.387 119.984 275.743 120.361 275.18 120.164C275.35 119.825 274.9 119.439 274.48 119.48C274.273 119.522 274.081 119.608 273.92 119.73C273.759 119.852 273.634 120.007 273.556 120.182C273.277 120.677 273.184 121.237 273.289 121.782C273.422 122.46 273.866 123.111 273.749 123.792C273.656 124.358 273.186 124.921 273.436 125.445C273.598 125.685 273.802 125.901 274.039 126.085C274.369 126.444 274.53 126.9 274.49 127.361C274.449 127.822 274.211 128.251 273.823 128.561L280.132 128.673C279.902 129.604 280.375 130.556 280.916 131.384C282.429 133.661 284.518 135.597 287.02 137.041C289.521 138.484 292.368 139.396 295.335 139.704C295.174 139.787 295.037 139.9 294.932 140.036C294.827 140.172 294.758 140.326 294.729 140.488C294.7 140.65 294.712 140.816 294.764 140.974C294.816 141.131 294.908 141.277 295.031 141.399C295.545 141.85 296.415 141.794 297.059 141.502C297.703 141.21 298.206 140.727 298.793 140.353C299.829 139.704 301.093 139.403 302.358 139.504C303.148 139.572 303.915 139.799 304.709 139.834C307.043 139.943 309.044 138.458 311.291 137.851C312.929 137.406 314.786 137.406 316.16 136.501C316.754 136.112 317.241 135.472 317.067 134.841C316.924 134.479 316.697 134.147 316.4 133.866C315.61 132.961 315.143 131.873 314.576 130.845C313.453 128.808 311.907 126.977 310.018 125.445C308.592 124.344 307.081 123.332 305.496 122.416C305.113 122.166 304.704 121.948 304.275 121.764C303.722 121.549 303.108 121.446 302.608 121.175C301.868 120.762 301.441 120.034 300.87 119.448C299.62 118.157 297.699 117.564 296.159 116.55C295.125 115.87 294.211 114.974 292.977 114.647C292.377 114.484 291.74 114.473 291.14 114.314C289.776 113.948 288.782 112.878 287.445 112.445C286.388 112.103 285.221 112.191 284.11 112.071C282.858 111.934 281.663 111.532 280.625 110.898C280.291 110.657 279.917 110.464 279.515 110.326C277.824 109.872 277.688 112.654 277.514 113.618C277.291 115.05 276.884 116.474 276.884 117.924Z" fill="#6C63FF"/>
<path d="M278.532 127.255C278.815 129.972 276.495 132.604 277.171 135.266C277.315 135.832 277.592 136.371 277.692 136.946C277.975 138.523 276.908 140.017 275.891 141.337L267.154 152.67C266.803 153.167 266.384 153.624 265.907 154.031C264.239 155.343 261.732 155.21 259.538 155.599C257.996 155.879 256.541 156.448 255.269 157.267C255.212 157.306 255.174 157.364 255.164 157.427C255.154 157.49 255.173 157.555 255.216 157.606C255.578 158.042 256.058 158.391 256.612 158.621C257.166 158.851 257.776 158.955 258.387 158.924C258.617 159.189 258.387 159.584 258.07 159.775C257.603 160.07 256.956 160.138 256.863 160.842C256.832 161.087 256.888 161.334 257.023 161.55C257.376 162.025 257.924 162.36 258.55 162.487C261.575 163.306 264.843 161.868 267.107 159.914C269.372 157.96 270.996 155.493 273.217 153.507C274.447 152.404 275.844 151.464 277.111 150.397C279.639 148.266 281.607 145.681 283.501 143.091C284.071 142.31 284.648 141.508 284.885 140.603C285.121 139.698 285.011 138.782 285.282 137.907C285.635 136.76 286.585 135.843 287.376 134.883C288.926 132.996 289.963 130.689 289.757 128.363C289.55 126.038 287.923 123.745 285.442 122.955C284.672 122.685 283.825 122.639 283.024 122.825C282.007 123.102 281.257 123.845 280.563 124.558L278.896 126.25C278.49 126.625 278.171 127.066 277.958 127.55C277.851 127.793 277.825 128.059 277.884 128.315C277.944 128.571 278.085 128.807 278.292 128.994" fill="#FBBEBE"/>
<path d="M282.96 116.108C281.813 116.167 280.549 116.268 279.739 116.993C279.399 117.326 279.124 117.706 278.925 118.118C278.138 119.536 277.371 121.019 277.315 122.598C277.268 123.86 277.681 125.095 277.898 126.341C278.078 127.379 277.621 128.437 277.535 129.486C278.959 129.1 280.839 128.575 282.13 127.924C283.01 127.479 283.861 126.972 284.821 126.689C286.192 126.285 288.489 126.984 289.793 127.544C289.863 126.736 289.176 125.328 289.25 124.517C289.26 124.176 289.328 123.838 289.453 123.515C289.648 123.173 289.879 122.849 290.143 122.545C290.64 121.832 290.868 120.998 290.795 120.163C290.723 119.329 290.354 118.535 289.74 117.897C288.583 116.748 286.772 116.318 285.045 116.129C283.957 116.018 282.86 115.984 281.766 116.029" fill="#6C63FF"/>
</g>
<defs>
<linearGradient id="paint0_linear" x1="235.501" y1="160.975" x2="235.501" y2="16.9528" gradientUnits="userSpaceOnUse">
<stop stop-color="#808080" stop-opacity="0.25"/>
<stop offset="0.54" stop-color="#808080" stop-opacity="0.12"/>
<stop offset="1" stop-color="#808080" stop-opacity="0.1"/>
</linearGradient>
<clipPath id="clip0">
<rect width="350" height="200" fill="white"/>
</clipPath>
</defs>
</svg>
